<svg width="175" height="68" viewBox="0 0 175 68" fill="none" xmlns="http://www.w3.org/2000/svg">
<mask id="path-1-outside-1_91_616" maskUnits="userSpaceOnUse" x="0" y="0" width="175" height="68" fill="black">
<rect fill="white" width="175" height="68"/>
<path d="M2 10.581C3.91019 10.581 5.46221 10.3724 6.65608 9.95531C7.90964 9.53817 8.92443 8.97206 9.70044 8.25698C10.4765 7.5419 11.1032 6.70763 11.5808 5.75419C12.0583 4.80074 12.4762 3.78771 12.8343 2.71508H19.4603V65.2849H9.6109V17.5531H2V10.581Z"/>
<path d="M50.9322 18.0894C50.9322 15.2886 50.4547 13.4115 49.4996 12.4581C48.6042 11.4451 47.3805 10.9385 45.8284 10.9385C44.2764 10.9385 43.0229 11.4153 42.0678 12.3687C41.1724 13.2626 40.7247 14.8417 40.7247 17.1061V23.8101H31.4125V17.7318C31.4125 12.6667 32.6362 8.79329 35.0836 6.11173C37.5908 3.37058 41.2619 2 46.0971 2C50.9322 2 54.5735 3.37058 57.0209 6.11173C59.5281 8.79329 60.7816 12.6667 60.7816 17.7318C60.7816 21.1285 60.2444 24.1974 59.1699 26.9385C58.1551 29.6797 56.8717 32.1825 55.3197 34.4469C53.7677 36.7114 52.0962 38.797 50.3054 40.7039C48.5146 42.5512 46.9029 44.3389 45.4703 46.067C44.0376 47.7356 42.9035 49.4041 42.0678 51.0726C41.2321 52.7412 40.9634 54.4991 41.2619 56.3464H59.8862V65.2849H31.4125V57.5978C31.4125 54.5587 31.89 51.8771 32.8451 49.5531C33.8002 47.2291 34.9941 45.1136 36.4267 43.2067C37.9191 41.2402 39.5009 39.4227 41.1724 37.7542C42.8438 36.0261 44.3958 34.2086 45.8284 32.3017C47.3208 30.3948 48.5445 28.3091 49.4996 26.0447C50.4547 23.7803 50.9322 21.1285 50.9322 18.0894Z"/>
<path d="M75.9573 50.8939C75.9573 53.1583 76.405 54.7672 77.3004 55.7207C78.2554 56.6145 79.509 57.0615 81.061 57.0615C82.6131 57.0615 83.8368 56.6145 84.7322 55.7207C85.6873 54.7672 86.1648 53.1583 86.1648 50.8939V17.1061C86.1648 14.8417 85.6873 13.2626 84.7322 12.3687C83.8368 11.4153 82.6131 10.9385 81.061 10.9385C79.509 10.9385 78.2554 11.4153 77.3004 12.3687C76.405 13.2626 75.9573 14.8417 75.9573 17.1061V50.8939ZM66.1078 17.7318C66.1078 12.6667 67.3913 8.79329 69.9581 6.11173C72.5249 3.37058 76.2259 2 81.061 2C85.8962 2 89.5972 3.37058 92.164 6.11173C94.7308 8.79329 96.0142 12.6667 96.0142 17.7318V50.2682C96.0142 55.3333 94.7308 59.2365 92.164 61.9777C89.5972 64.6592 85.8962 66 81.061 66C76.2259 66 72.5249 64.6592 69.9581 61.9777C67.3913 59.2365 66.1078 55.3333 66.1078 50.2682V17.7318Z"/>
<path d="M121.599 34.6257C124.027 34.6257 125.826 35.2681 126.996 36.5528C128.195 37.8376 128.795 39.721 128.795 42.2029V46.1886C128.795 48.6705 128.195 50.5539 126.996 51.8387C125.826 53.1234 124.027 53.7658 121.599 53.7658H119.318V65.2849H114.492V34.6257H121.599ZM119.318 39.0056V49.3859H121.599C122.36 49.3859 122.945 49.1815 123.354 48.7727C123.764 48.3639 123.968 47.6048 123.968 46.4952V41.8963C123.968 40.7867 123.764 40.0276 123.354 39.6188C122.945 39.21 122.36 39.0056 121.599 39.0056H119.318Z"/>
<path d="M132.304 60.905C132.567 60.9342 132.845 60.9488 133.137 60.9488C133.43 60.9488 133.708 60.9488 133.971 60.9488C134.351 60.9488 134.702 60.905 135.024 60.8174C135.375 60.7298 135.667 60.5692 135.901 60.3356C136.165 60.1021 136.355 59.7663 136.472 59.3283C136.618 58.8903 136.691 58.3355 136.691 57.6639L129.671 34.6257H134.497L139.806 52.5832L144.194 34.6257H149.02L142.702 57.2259C142.146 59.3283 141.576 60.9488 140.991 62.0876C140.435 63.1972 139.835 64.0002 139.192 64.4965C138.548 64.9637 137.846 65.2265 137.086 65.2849C136.355 65.3433 135.536 65.3725 134.629 65.3725C134.19 65.3725 133.795 65.3725 133.444 65.3725C133.093 65.3725 132.713 65.3433 132.304 65.2849V60.905Z"/>
<path d="M156.037 46.1448H158.318C160.746 46.1448 162.545 46.7872 163.715 48.072C164.914 49.3567 165.514 51.2401 165.514 53.722V57.7077C165.514 60.1897 164.914 62.073 163.715 63.3578C162.545 64.6425 160.746 65.2849 158.318 65.2849H151.211V34.6257H163.978V39.0056H156.037V46.1448ZM158.318 60.905C159.079 60.905 159.664 60.7006 160.073 60.2918C160.483 59.8831 160.688 59.1239 160.688 58.0143V53.4154C160.688 52.3059 160.483 51.5467 160.073 51.1379C159.664 50.7291 159.079 50.5247 158.318 50.5247H156.037V60.905H158.318Z"/>
<path d="M173 60.6422V65.2849H168.349V60.6422H173Z"/>
</mask>
<path d="M2 10.581C3.91019 10.581 5.46221 10.3724 6.65608 9.95531C7.90964 9.53817 8.92443 8.97206 9.70044 8.25698C10.4765 7.5419 11.1032 6.70763 11.5808 5.75419C12.0583 4.80074 12.4762 3.78771 12.8343 2.71508H19.4603V65.2849H9.6109V17.5531H2V10.581Z" fill="white"/>
<path d="M50.9322 18.0894C50.9322 15.2886 50.4547 13.4115 49.4996 12.4581C48.6042 11.4451 47.3805 10.9385 45.8284 10.9385C44.2764 10.9385 43.0229 11.4153 42.0678 12.3687C41.1724 13.2626 40.7247 14.8417 40.7247 17.1061V23.8101H31.4125V17.7318C31.4125 12.6667 32.6362 8.79329 35.0836 6.11173C37.5908 3.37058 41.2619 2 46.0971 2C50.9322 2 54.5735 3.37058 57.0209 6.11173C59.5281 8.79329 60.7816 12.6667 60.7816 17.7318C60.7816 21.1285 60.2444 24.1974 59.1699 26.9385C58.1551 29.6797 56.8717 32.1825 55.3197 34.4469C53.7677 36.7114 52.0962 38.797 50.3054 40.7039C48.5146 42.5512 46.9029 44.3389 45.4703 46.067C44.0376 47.7356 42.9035 49.4041 42.0678 51.0726C41.2321 52.7412 40.9634 54.4991 41.2619 56.3464H59.8862V65.2849H31.4125V57.5978C31.4125 54.5587 31.89 51.8771 32.8451 49.5531C33.8002 47.2291 34.9941 45.1136 36.4267 43.2067C37.9191 41.2402 39.5009 39.4227 41.1724 37.7542C42.8438 36.0261 44.3958 34.2086 45.8284 32.3017C47.3208 30.3948 48.5445 28.3091 49.4996 26.0447C50.4547 23.7803 50.9322 21.1285 50.9322 18.0894Z" fill="white"/>
<path d="M75.9573 50.8939C75.9573 53.1583 76.405 54.7672 77.3004 55.7207C78.2554 56.6145 79.509 57.0615 81.061 57.0615C82.6131 57.0615 83.8368 56.6145 84.7322 55.7207C85.6873 54.7672 86.1648 53.1583 86.1648 50.8939V17.1061C86.1648 14.8417 85.6873 13.2626 84.7322 12.3687C83.8368 11.4153 82.6131 10.9385 81.061 10.9385C79.509 10.9385 78.2554 11.4153 77.3004 12.3687C76.405 13.2626 75.9573 14.8417 75.9573 17.1061V50.8939ZM66.1078 17.7318C66.1078 12.6667 67.3913 8.79329 69.9581 6.11173C72.5249 3.37058 76.2259 2 81.061 2C85.8962 2 89.5972 3.37058 92.164 6.11173C94.7308 8.79329 96.0142 12.6667 96.0142 17.7318V50.2682C96.0142 55.3333 94.7308 59.2365 92.164 61.9777C89.5972 64.6592 85.8962 66 81.061 66C76.2259 66 72.5249 64.6592 69.9581 61.9777C67.3913 59.2365 66.1078 55.3333 66.1078 50.2682V17.7318Z" fill="white"/>
<path d="M121.599 34.6257C124.027 34.6257 125.826 35.2681 126.996 36.5528C128.195 37.8376 128.795 39.721 128.795 42.2029V46.1886C128.795 48.6705 128.195 50.5539 126.996 51.8387C125.826 53.1234 124.027 53.7658 121.599 53.7658H119.318V65.2849H114.492V34.6257H121.599ZM119.318 39.0056V49.3859H121.599C122.36 49.3859 122.945 49.1815 123.354 48.7727C123.764 48.3639 123.968 47.6048 123.968 46.4952V41.8963C123.968 40.7867 123.764 40.0276 123.354 39.6188C122.945 39.21 122.36 39.0056 121.599 39.0056H119.318Z" fill="white"/>
<path d="M132.304 60.905C132.567 60.9342 132.845 60.9488 133.137 60.9488C133.43 60.9488 133.708 60.9488 133.971 60.9488C134.351 60.9488 134.702 60.905 135.024 60.8174C135.375 60.7298 135.667 60.5692 135.901 60.3356C136.165 60.1021 136.355 59.7663 136.472 59.3283C136.618 58.8903 136.691 58.3355 136.691 57.6639L129.671 34.6257H134.497L139.806 52.5832L144.194 34.6257H149.02L142.702 57.2259C142.146 59.3283 141.576 60.9488 140.991 62.0876C140.435 63.1972 139.835 64.0002 139.192 64.4965C138.548 64.9637 137.846 65.2265 137.086 65.2849C136.355 65.3433 135.536 65.3725 134.629 65.3725C134.19 65.3725 133.795 65.3725 133.444 65.3725C133.093 65.3725 132.713 65.3433 132.304 65.2849V60.905Z" fill="white"/>
<path d="M156.037 46.1448H158.318C160.746 46.1448 162.545 46.7872 163.715 48.072C164.914 49.3567 165.514 51.2401 165.514 53.722V57.7077C165.514 60.1897 164.914 62.073 163.715 63.3578C162.545 64.6425 160.746 65.2849 158.318 65.2849H151.211V34.6257H163.978V39.0056H156.037V46.1448ZM158.318 60.905C159.079 60.905 159.664 60.7006 160.073 60.2918C160.483 59.8831 160.688 59.1239 160.688 58.0143V53.4154C160.688 52.3059 160.483 51.5467 160.073 51.1379C159.664 50.7291 159.079 50.5247 158.318 50.5247H156.037V60.905H158.318Z" fill="white"/>
<path d="M173 60.6422V65.2849H168.349V60.6422H173Z" fill="white"/>
<path d="M2 10.581C3.91019 10.581 5.46221 10.3724 6.65608 9.95531C7.90964 9.53817 8.92443 8.97206 9.70044 8.25698C10.4765 7.5419 11.1032 6.70763 11.5808 5.75419C12.0583 4.80074 12.4762 3.78771 12.8343 2.71508H19.4603V65.2849H9.6109V17.5531H2V10.581Z" stroke="#242C43" stroke-width="2.6" mask="url(#path-1-outside-1_91_616)"/>
<path d="M50.9322 18.0894C50.9322 15.2886 50.4547 13.4115 49.4996 12.4581C48.6042 11.4451 47.3805 10.9385 45.8284 10.9385C44.2764 10.9385 43.0229 11.4153 42.0678 12.3687C41.1724 13.2626 40.7247 14.8417 40.7247 17.1061V23.8101H31.4125V17.7318C31.4125 12.6667 32.6362 8.79329 35.0836 6.11173C37.5908 3.37058 41.2619 2 46.0971 2C50.9322 2 54.5735 3.37058 57.0209 6.11173C59.5281 8.79329 60.7816 12.6667 60.7816 17.7318C60.7816 21.1285 60.2444 24.1974 59.1699 26.9385C58.1551 29.6797 56.8717 32.1825 55.3197 34.4469C53.7677 36.7114 52.0962 38.797 50.3054 40.7039C48.5146 42.5512 46.9029 44.3389 45.4703 46.067C44.0376 47.7356 42.9035 49.4041 42.0678 51.0726C41.2321 52.7412 40.9634 54.4991 41.2619 56.3464H59.8862V65.2849H31.4125V57.5978C31.4125 54.5587 31.89 51.8771 32.8451 49.5531C33.8002 47.2291 34.9941 45.1136 36.4267 43.2067C37.9191 41.2402 39.5009 39.4227 41.1724 37.7542C42.8438 36.0261 44.3958 34.2086 45.8284 32.3017C47.3208 30.3948 48.5445 28.3091 49.4996 26.0447C50.4547 23.7803 50.9322 21.1285 50.9322 18.0894Z" stroke="#242C43" stroke-width="2.6" mask="url(#path-1-outside-1_91_616)"/>
<path d="M75.9573 50.8939C75.9573 53.1583 76.405 54.7672 77.3004 55.7207C78.2554 56.6145 79.509 57.0615 81.061 57.0615C82.6131 57.0615 83.8368 56.6145 84.7322 55.7207C85.6873 54.7672 86.1648 53.1583 86.1648 50.8939V17.1061C86.1648 14.8417 85.6873 13.2626 84.7322 12.3687C83.8368 11.4153 82.6131 10.9385 81.061 10.9385C79.509 10.9385 78.2554 11.4153 77.3004 12.3687C76.405 13.2626 75.9573 14.8417 75.9573 17.1061V50.8939ZM66.1078 17.7318C66.1078 12.6667 67.3913 8.79329 69.9581 6.11173C72.5249 3.37058 76.2259 2 81.061 2C85.8962 2 89.5972 3.37058 92.164 6.11173C94.7308 8.79329 96.0142 12.6667 96.0142 17.7318V50.2682C96.0142 55.3333 94.7308 59.2365 92.164 61.9777C89.5972 64.6592 85.8962 66 81.061 66C76.2259 66 72.5249 64.6592 69.9581 61.9777C67.3913 59.2365 66.1078 55.3333 66.1078 50.2682V17.7318Z" stroke="#242C43" stroke-width="2.6" mask="url(#path-1-outside-1_91_616)"/>
<path d="M121.599 34.6257C124.027 34.6257 125.826 35.2681 126.996 36.5528C128.195 37.8376 128.795 39.721 128.795 42.2029V46.1886C128.795 48.6705 128.195 50.5539 126.996 51.8387C125.826 53.1234 124.027 53.7658 121.599 53.7658H119.318V65.2849H114.492V34.6257H121.599ZM119.318 39.0056V49.3859H121.599C122.36 49.3859 122.945 49.1815 123.354 48.7727C123.764 48.3639 123.968 47.6048 123.968 46.4952V41.8963C123.968 40.7867 123.764 40.0276 123.354 39.6188C122.945 39.21 122.36 39.0056 121.599 39.0056H119.318Z" stroke="#242C43" stroke-width="2.6" mask="url(#path-1-outside-1_91_616)"/>
<path d="M132.304 60.905C132.567 60.9342 132.845 60.9488 133.137 60.9488C133.43 60.9488 133.708 60.9488 133.971 60.9488C134.351 60.9488 134.702 60.905 135.024 60.8174C135.375 60.7298 135.667 60.5692 135.901 60.3356C136.165 60.1021 136.355 59.7663 136.472 59.3283C136.618 58.8903 136.691 58.3355 136.691 57.6639L129.671 34.6257H134.497L139.806 52.5832L144.194 34.6257H149.02L142.702 57.2259C142.146 59.3283 141.576 60.9488 140.991 62.0876C140.435 63.1972 139.835 64.0002 139.192 64.4965C138.548 64.9637 137.846 65.2265 137.086 65.2849C136.355 65.3433 135.536 65.3725 134.629 65.3725C134.19 65.3725 133.795 65.3725 133.444 65.3725C133.093 65.3725 132.713 65.3433 132.304 65.2849V60.905Z" stroke="#242C43" stroke-width="2.6" mask="url(#path-1-outside-1_91_616)"/>
<path d="M156.037 46.1448H158.318C160.746 46.1448 162.545 46.7872 163.715 48.072C164.914 49.3567 165.514 51.2401 165.514 53.722V57.7077C165.514 60.1897 164.914 62.073 163.715 63.3578C162.545 64.6425 160.746 65.2849 158.318 65.2849H151.211V34.6257H163.978V39.0056H156.037V46.1448ZM158.318 60.905C159.079 60.905 159.664 60.7006 160.073 60.2918C160.483 59.8831 160.688 59.1239 160.688 58.0143V53.4154C160.688 52.3059 160.483 51.5467 160.073 51.1379C159.664 50.7291 159.079 50.5247 158.318 50.5247H156.037V60.905H158.318Z" stroke="#242C43" stroke-width="2.6" mask="url(#path-1-outside-1_91_616)"/>
<path d="M173 60.6422V65.2849H168.349V60.6422H173Z" stroke="#242C43" stroke-width="2.6" mask="url(#path-1-outside-1_91_616)"/>
</svg>
