<svg width="204" height="75" viewBox="0 0 204 75" fill="none" xmlns="http://www.w3.org/2000/svg">
<path d="M169.201 72.6481C170.175 72.5731 171.074 72.2339 171.885 71.6437L171.893 71.6381L171.9 71.6323C172.726 70.9946 173.448 70.0024 174.091 68.7172C174.775 67.3838 175.425 65.5218 176.05 63.1551C176.05 63.1534 176.051 63.1516 176.051 63.1499L183.105 37.8747L183.335 37.05H182.479H177.089H176.578L176.457 37.546L172.129 55.2915L166.883 37.516L166.746 37.05H166.26H160.87H159.993L160.248 37.8892L168.059 63.5692C168.053 64.2332 167.976 64.7475 167.848 65.1305L167.842 65.1493L167.837 65.1685C167.73 65.5707 167.571 65.8218 167.396 65.9772L167.382 65.9899L167.368 66.0034C167.198 66.1737 166.979 66.2992 166.69 66.3714L166.69 66.3713L166.677 66.3749C166.38 66.4558 166.047 66.499 165.672 66.499H165.67H165.668H165.667H165.665H165.663H165.661H165.66H165.658H165.656H165.655H165.653H165.651H165.649H165.648H165.646H165.644H165.642H165.641H165.639H165.637H165.636H165.634H165.632H165.63H165.629H165.627H165.625H165.623H165.622H165.62H165.618H165.617H165.615H165.613H165.611H165.61H165.608H165.606H165.604H165.603H165.601H165.599H165.597H165.596H165.594H165.592H165.59H165.589H165.587H165.585H165.583H165.582H165.58H165.578H165.577H165.575H165.573H165.571H165.57H165.568H165.566H165.564H165.563H165.561H165.559H165.557H165.556H165.554H165.552H165.55H165.549H165.547H165.545H165.543H165.542H165.54H165.538H165.536H165.535H165.533H165.531H165.529H165.528H165.526H165.524H165.522H165.521H165.519H165.517H165.515H165.514H165.512H165.51H165.508H165.506H165.505H165.503H165.501H165.499H165.498H165.496H165.494H165.492H165.491H165.489H165.487H165.485H165.484H165.482H165.48H165.478H165.477H165.475H165.473H165.471H165.469H165.468H165.466H165.464H165.462H165.461H165.459H165.457H165.455H165.454H165.452H165.45H165.448H165.446H165.445H165.443H165.441H165.439H165.438H165.436H165.434H165.432H165.431H165.429H165.427H165.425H165.423H165.422H165.42H165.418H165.416H165.415H165.413H165.411H165.409H165.407H165.406H165.404H165.402H165.4H165.399H165.397H165.395H165.393H165.391H165.39H165.388H165.386H165.384H165.382H165.381H165.379H165.377H165.375H165.374H165.372H165.37H165.368H165.366H165.365H165.363H165.361H165.359H165.357H165.356H165.354H165.352H165.35H165.349H165.347H165.345H165.343H165.341H165.34H165.338H165.336H165.334H165.332H165.331H165.329H165.327H165.325H165.323H165.322H165.32H165.318H165.316H165.314H165.313H165.311H165.309H165.307H165.305H165.304H165.302H165.3H165.298H165.296H165.295H165.293H165.291H165.289H165.287H165.286H165.284H165.282H165.28H165.278H165.277H165.275H165.273H165.271H165.269H165.268H165.266H165.264H165.262H165.26H165.258H165.257H165.255H165.253H165.251H165.249H165.248H165.246H165.244H165.242H165.24H165.239H165.237H165.235H165.233H165.231H165.229H165.228H165.226H165.224H165.222H165.22H165.219H165.217H165.215H165.213H165.211H165.209H165.208H165.206H165.204H165.202H165.2H165.199H165.197H165.195H165.193H165.191H165.189H165.188H165.186H165.184H165.182H165.18H165.178H165.177H165.175H165.173H165.171H165.169H165.168H165.166H165.164H165.162H165.16H165.158H165.157H165.155H165.153H165.151H165.149H165.147H165.146H165.144H165.142H165.14H165.138H165.136H165.135H165.133H165.131H165.129H165.127H165.125H165.124H165.122H165.12H165.118H165.116H165.114H165.112H165.111H165.109H165.107H165.105H165.103H165.101H165.1H165.098H165.096H165.094H165.092H165.09H165.089H165.087H165.085H165.083H165.081H165.079H165.077H165.076H165.074H165.072H165.07H165.068H165.066H165.064H165.063H165.061H165.059H165.057H165.055H165.053H165.052H165.05H165.048H165.046H165.044H165.042H165.04H165.039H165.037H165.035H165.033H165.031H165.029H165.027H165.026H165.024H165.022H165.02H165.018H165.016H165.014H165.013H165.011H165.009H165.007H165.005H165.003H165.001H165H164.998H164.996H164.994H164.992H164.99H164.988H164.986H164.985H164.983H164.981H164.979H164.977H164.975H164.973H164.972H164.97H164.968H164.966H164.964H164.962H164.96H164.958H164.957H164.955H164.953H164.951H164.949H164.947H164.945H164.943H164.942H164.94H164.938H164.936H164.934H164.932H164.93H164.928H164.927H164.925H164.923H164.921H164.919H164.917H164.915H164.913H164.912H164.91H164.908H164.906H164.904H164.902H164.9H164.898H164.897H164.895H164.893H164.891H164.889H164.887H164.885H164.883H164.881H164.88H164.878H164.876H164.874H164.872H164.87H164.868H164.866H164.864H164.863H164.861H164.859H164.857H164.855H164.853H164.851H164.849H164.847H164.846H164.844H164.842H164.84H164.838H164.836H164.834H164.832H164.83H164.828H164.827H164.825H164.823H164.821H164.819H164.817H164.815H164.813H164.811H164.809H164.808H164.806H164.804H164.802H164.8H164.798H164.796H164.794H164.792H164.79H164.789H164.787H164.785H164.783H164.781H164.779H164.777H164.775H164.773H164.771H164.769H164.768H164.766H164.764H164.762H164.76H164.758H164.756H164.754H164.752H164.75H164.748H164.747H164.745H164.743H164.741C164.436 66.499 164.149 66.4837 163.882 66.454L163.16 66.3738V67.1V72V72.5638L163.718 72.6435C164.2 72.7124 164.656 72.748 165.084 72.748H165.086H165.088H165.091H165.093H165.095H165.098H165.1H165.102H165.105H165.107H165.109H165.111H165.114H165.116H165.118H165.121H165.123H165.125H165.128H165.13H165.132H165.135H165.137H165.139H165.142H165.144H165.146H165.149H165.151H165.153H165.156H165.158H165.16H165.163H165.165H165.167H165.17H165.172H165.174H165.177H165.179H165.181H165.184H165.186H165.188H165.191H165.193H165.195H165.198H165.2H165.202H165.205H165.207H165.209H165.212H165.214H165.217H165.219H165.221H165.224H165.226H165.228H165.231H165.233H165.235H165.238H165.24H165.243H165.245H165.247H165.25H165.252H165.254H165.257H165.259H165.262H165.264H165.266H165.269H165.271H165.274H165.276H165.278H165.281H165.283H165.285H165.288H165.29H165.293H165.295H165.297H165.3H165.302H165.305H165.307H165.309H165.312H165.314H165.317H165.319H165.322H165.324H165.326H165.329H165.331H165.334H165.336H165.338H165.341H165.343H165.346H165.348H165.351H165.353H165.355H165.358H165.36H165.363H165.365H165.368H165.37H165.372H165.375H165.377H165.38H165.382H165.385H165.387H165.389H165.392H165.394H165.397H165.399H165.402H165.404H165.407H165.409H165.411H165.414H165.416H165.419H165.421H165.424H165.426H165.429H165.431H165.434H165.436H165.439H165.441H165.443H165.446H165.448H165.451H165.453H165.456H165.458H165.461H165.463H165.466H165.468H165.471H165.473H165.476H165.478H165.481H165.483H165.486H165.488H165.49H165.493H165.495H165.498H165.5H165.503H165.505H165.508H165.51H165.513H165.515H165.518H165.52H165.523H165.525H165.528H165.53H165.533H165.535H165.538H165.54H165.543H165.545H165.548H165.551H165.553H165.556H165.558H165.561H165.563H165.566H165.568H165.571H165.573H165.576H165.578H165.581H165.583H165.586H165.588H165.591H165.593H165.596H165.598H165.601H165.604H165.606H165.609H165.611H165.614H165.616H165.619H165.621H165.624H165.626H165.629H165.632H165.634H165.637H165.639H165.642H165.644H165.647H165.649H165.652H165.655H165.657H165.66H165.662H165.665H165.667H165.67H165.673H165.675H165.678H165.68H165.683H165.685H165.688H165.691H165.693H165.696H165.698H165.701H165.703H165.706H165.709H165.711H165.714H165.716H165.719H165.721H165.724H165.727H165.729H165.732H165.734H165.737H165.74H165.742H165.745H165.747H165.75H165.753H165.755H165.758H165.76H165.763H165.766H165.768H165.771H165.774H165.776H165.779H165.781H165.784H165.787H165.789H165.792H165.794H165.797H165.8H165.802H165.805H165.808H165.81H165.813H165.815H165.818H165.821H165.823H165.826H165.829H165.831H165.834H165.837H165.839H165.842H165.844H165.847H165.85H165.852H165.855H165.858H165.86H165.863H165.866H165.868H165.871H165.874H165.876H165.879H165.882H165.884H165.887H165.89H165.892H165.895H165.898H165.9H165.903H165.906H165.908H165.911H165.914H165.916H165.919H165.922H165.924H165.927H165.93H165.932H165.935H165.938H165.94H165.943H165.946H165.948H165.951H165.954H165.956H165.959H165.962H165.964H165.967H165.97H165.973H165.975H165.978H165.981H165.983H165.986H165.989H165.991H165.994H165.997H166H166.002H166.005H166.008H166.01H166.013H166.016H166.019H166.021H166.024H166.027H166.029H166.032H166.035H166.038H166.04H166.043H166.046H166.049H166.051H166.054H166.057H166.059H166.062H166.065H166.068H166.07H166.073H166.076H166.079H166.081H166.084H166.087H166.09H166.092H166.095H166.098H166.101H166.103H166.106H166.109H166.112H166.114H166.117H166.12H166.123H166.125H166.128H166.131H166.134H166.136H166.139H166.142H166.145H166.147H166.15H166.153H166.156H166.159H166.161H166.164H166.167H166.17H166.172H166.175H166.178H166.181H166.184H166.186H166.189H166.192H166.195H166.197H166.2H166.203H166.206H166.209H166.211H166.214H166.217H166.22H166.223H166.225H166.228H166.231H166.234H166.237H166.239H166.242H166.245H166.248H166.251H166.253H166.256H166.259H166.262H166.265H166.267H166.27H166.273H166.276H166.279H166.282H166.284H166.287H166.29H166.293H166.296H166.299H166.301H166.304H166.307H166.31H166.313H166.316H166.318H166.321H166.324H166.327H166.33H166.333H166.335H166.338H166.341H166.344H166.347H166.35H166.352H166.355H166.358H166.361H166.364H166.367H166.37H166.372H166.375H166.378H166.381H166.384H166.387H166.39H166.392H166.395H166.398H166.401H166.404H166.407C167.432 72.748 168.364 72.715 169.201 72.6481ZM169.201 72.6481L169.151 72M169.201 72.6481C169.201 72.648 169.202 72.648 169.203 72.6479L169.151 72M169.151 72C168.334 72.0653 167.419 72.098 166.407 72.098H165.084C164.692 72.098 164.267 72.0653 163.81 72L175.423 62.984C174.802 65.336 174.165 67.149 173.512 68.423C172.891 69.6643 172.221 70.5627 171.503 71.118C170.784 71.6407 170 71.9347 169.151 72ZM2 10.15H1.35V10.8V18.6V19.25H2H9.85V72V72.65H10.5H21.5H22.15V72V2V1.35H21.5H14.1H13.6315L13.4834 1.79445C13.0925 2.96702 12.6374 4.07176 12.1186 5.10932C11.62 6.10649 10.9674 6.97629 10.1591 7.72238C9.37491 8.44626 8.32834 9.03873 6.99445 9.48336L6.99443 9.48329L6.98527 9.4865C5.74669 9.92 4.09364 10.15 2 10.15ZM45.3984 49.4V48.75H44.7484H34.3484H33.6984V49.4V55.2C33.6984 60.9655 35.0893 65.5081 37.9632 68.7325L37.9682 68.7381L37.9733 68.7435C40.9317 71.9133 45.228 73.45 50.7484 73.45C56.2676 73.45 60.5349 71.9138 63.4285 68.7383C66.3723 65.514 67.7984 60.9691 67.7984 55.2V39.6C67.7984 34.3304 66.754 30.2031 64.57 27.3121C62.4223 24.3796 59.1735 22.95 54.9484 22.95C51.2384 22.95 48.2731 24.1531 46.1142 26.5687L46.8644 12.65H65.3484H65.9984V12V2V1.35H65.3484H36.3484H35.7297L35.6992 1.96802L33.6992 42.568L33.6656 43.25H34.3484H44.7484H45.3984V42.6V40.5C45.3984 38.0142 45.8964 36.4713 46.7081 35.6596C47.6344 34.7332 48.8596 34.25 50.4484 34.25C52.0383 34.25 53.2199 34.7332 54.0742 35.6446L54.0886 35.6599L54.1039 35.6742C54.9706 36.4867 55.4984 38.0228 55.4984 40.5V55.9C55.4984 58.3772 54.9706 59.9133 54.1039 60.7258L54.0962 60.733L54.0888 60.7404C53.2371 61.5921 52.0507 62.05 50.4484 62.05C48.8522 62.05 47.6243 61.595 46.7008 60.7331C45.8934 59.9195 45.3984 58.3784 45.3984 55.9V49.4ZM103.125 37.05H102.566L102.482 37.603L99.4255 57.8606L96.1227 37.5954L96.0339 37.05H95.4812H87.9842H87.3342V37.7V72V72.65H87.9842H92.6882H93.3382V72V55.646L96.065 72.1062L96.155 72.65H96.7062H101.802H102.361L102.445 72.0973L104.876 56.0378V72V72.65H105.526H110.622H111.272V72V37.7V37.05H110.622H103.125ZM122.039 72.65H122.537L122.666 72.1696L128.102 52.0542V72V72.65H128.752H133.603H134.253V72V37.7V37.05H133.603H126.841H126.343L126.213 37.5308L121.954 53.3245V37.7V37.05H121.304H116.502H115.852V37.7V72V72.65H116.502H122.039ZM144.859 72.65H145.509V72V57.95H150.334V72V72.65H150.984H156.472H157.122V72V37.7V37.05H156.472H150.984H150.334V37.7V51.75H145.509V37.7V37.05H144.859H139.469H138.819V37.7V72V72.65H139.469H144.859ZM185.416 37.05H184.766V37.7V42.6V43.25H185.416H190.401V72V72.65H191.051H196.441H197.091V72V43.25H202.076H202.726V42.6V37.7V37.05H202.076H185.416Z" stroke="#242C43" stroke-width="1.3"/>
</svg>
