<svg width="130" height="45" viewBox="0 0 130 45" fill="none" xmlns="http://www.w3.org/2000/svg">
<path d="M0 5.59322C1.38614 5.59322 2.51238 5.44492 3.37872 5.14831C4.28838 4.8517 5.02476 4.44915 5.58788 3.94068C6.151 3.4322 6.60583 2.83898 6.95237 2.16102C7.2989 1.48305 7.60212 0.762712 7.86202 0H12.6702V44.4915H5.52291V10.5508H0V5.59322ZM27.776 30.1271V34.2585C27.776 35.8686 28.1008 36.9915 28.7506 37.6271C29.4437 38.2627 30.3533 38.5805 31.4796 38.5805C32.6058 38.5805 33.4938 38.2627 34.1436 37.6271C34.8366 36.9915 35.1832 35.8686 35.1832 34.2585V24.4703C35.1832 22.8602 34.8366 21.7373 34.1436 21.1017C33.4938 20.4237 32.6058 20.0847 31.4796 20.0847C30.3533 20.0847 29.4437 20.4237 28.7506 21.1017C28.1008 21.7373 27.776 22.8602 27.776 24.4703V25.8051H21.0185L22.318 0H41.1609V6.35593H28.7506L28.1658 16.9703C29.5086 14.8093 31.5879 13.7288 34.4035 13.7288C37.0458 13.7288 39.0167 14.5975 40.3162 16.3347C41.659 18.072 42.3305 20.5932 42.3305 23.8983V33.8136C42.3305 37.4153 41.4208 40.1907 39.6015 42.1398C37.8255 44.0466 35.1832 45 31.6745 45C28.1658 45 25.5018 44.0466 23.6825 42.1398C21.9065 40.1907 21.0185 37.4153 21.0185 33.8136V30.1271H27.776ZM63.3187 38.1693L65.7065 22.6907H70.5777V44.4915H67.2666V28.8572L64.8469 44.4915H61.5357L58.925 29.0752V44.4915H55.8686V22.6907H60.7398L63.3187 38.1693ZM77.9957 44.4915H74.398V22.6907H77.5181V35.74L81.1158 22.6907H85.5095V44.4915H82.3575V28.7015L77.9957 44.4915ZM92.823 44.4915H89.3208V22.6907H92.823V32.0339H96.8027V22.6907H100.369V44.4915H96.8027V35.1483H92.823V44.4915ZM105.137 41.3771C105.328 41.3979 105.529 41.4083 105.741 41.4083C105.954 41.4083 106.155 41.4083 106.346 41.4083C106.622 41.4083 106.877 41.3771 107.111 41.3148C107.365 41.2525 107.577 41.1383 107.747 40.9722C107.938 40.8061 108.076 40.5674 108.161 40.2559C108.267 39.9445 108.32 39.55 108.32 39.0725L103.226 22.6907H106.728L110.581 35.4597L113.765 22.6907H117.267L112.682 38.761C112.279 40.2559 111.865 41.4083 111.44 42.218C111.037 43.007 110.602 43.578 110.135 43.9309C109.668 44.2631 109.159 44.45 108.607 44.4915C108.076 44.5331 107.482 44.5538 106.824 44.5538C106.506 44.5538 106.219 44.5538 105.964 44.5538C105.71 44.5538 105.434 44.5331 105.137 44.4915V41.3771ZM119.175 22.6907H130V25.8051H126.339V44.4915H122.836V25.8051H119.175V22.6907Z" fill="white"/>
</svg>
