<svg width="94" height="47" viewBox="0 0 94 47" fill="none" xmlns="http://www.w3.org/2000/svg">
<path fill-rule="evenodd" clip-rule="evenodd" d="M3.38 5.765C2.51333 6.06833 1.38667 6.22 0 6.22V11.29H5.525V46H12.675V0.5H7.865C7.605 1.28 7.30167 2.01667 6.955 2.71C6.60833 3.40333 6.15333 4.01 5.59 4.53C5.02667 5.05 4.29 5.46167 3.38 5.765ZM37.152 40.2877V37.1257H33.616V40.5257C33.616 41.3871 33.4347 41.9877 33.072 42.3277C32.732 42.6677 32.2673 42.8377 31.678 42.8377C31.0887 42.8377 30.6127 42.6677 30.25 42.3277C29.91 41.9877 29.74 41.3871 29.74 40.5257V27.6737C29.74 26.8124 29.91 26.2117 30.25 25.8717C30.6127 25.5091 31.0887 25.3277 31.678 25.3277C32.2673 25.3277 32.732 25.5091 33.072 25.8717C33.4347 26.2117 33.616 26.8124 33.616 27.6737V30.2237H37.152V27.9117C37.152 25.9851 36.676 24.5117 35.724 23.4917C34.7947 22.4491 33.412 21.9277 31.576 21.9277C29.74 21.9277 28.346 22.4491 27.394 23.4917C26.4647 24.5117 26 25.9851 26 27.9117V40.2877C26 42.2144 26.4647 43.6991 27.394 44.7417C28.346 45.7617 29.74 46.2717 31.576 46.2717C33.412 46.2717 34.7947 45.7617 35.724 44.7417C36.676 43.6991 37.152 42.2144 37.152 40.2877ZM41.1876 42.6337C40.961 42.6337 40.7456 42.6224 40.5416 42.5997V45.9997C40.859 46.0451 41.1536 46.0677 41.4256 46.0677H42.3436C43.0463 46.0677 43.681 46.0451 44.2476 45.9997C44.837 45.9544 45.381 45.7504 45.8796 45.3877C46.3783 45.0024 46.843 44.3791 47.2736 43.5177C47.727 42.6337 48.169 41.3757 48.5996 39.7437L53.4956 22.1997H49.7556L46.3556 36.1397L42.2416 22.1997H38.5016L43.9416 40.0837C43.9416 40.6051 43.885 41.0357 43.7716 41.3757C43.681 41.7157 43.5336 41.9764 43.3296 42.1577C43.1483 42.3391 42.9216 42.4637 42.6496 42.5317C42.4003 42.5997 42.1283 42.6337 41.8336 42.6337H41.1876ZM54.1735 22.1997H65.7335V25.5997H61.8235V45.9997H58.0835V25.5997H54.1735V22.1997ZM71.1855 38.6897L72.3415 36.5137L75.9795 45.9997H79.8215L74.6195 32.8077L79.8215 22.1997H76.1495L71.1855 32.5697V22.1997H67.4455V45.9997H71.1855V38.6897ZM85.3656 45.9997H81.5236V22.1997H84.8556V36.4457L88.6976 22.1997H93.3896V45.9997H90.0236V28.7617L85.3656 45.9997Z" fill="white"/>
</svg>
