<svg width="59" height="123" viewBox="0 0 59 123" fill="none" xmlns="http://www.w3.org/2000/svg">
<path d="M35.4486 22.0861L35.462 22.1013L35.4764 22.1156C36.2612 22.9004 36.8909 24.1087 37.322 25.806C37.7523 27.5002 37.974 29.6402 37.974 32.24C37.974 37.8853 37.0884 42.7801 35.3369 46.9398C33.5669 51.1437 31.2999 55.0138 28.5358 58.5518L28.5357 58.5518L28.528 58.562C25.8574 62.1228 22.9642 65.5169 19.8483 68.7445C16.6919 71.9013 13.7058 75.3385 10.8899 79.0555L10.888 79.058C8.16518 82.6884 5.89845 86.713 4.08664 91.1293C2.25654 95.5901 1.35 100.717 1.35 106.496V120.944V121.594H2H55.424H56.074V120.944V104.144V103.494H55.424H21.0425C20.6393 100.356 21.149 97.3715 22.5734 94.5227C24.1138 91.4418 26.2102 88.3496 28.8695 85.247L28.8696 85.2471L28.8768 85.2384C31.5526 82.0051 34.5651 78.6576 37.9151 75.196L37.9152 75.1961L37.9222 75.1886C41.306 71.5792 44.4626 67.6331 47.3925 63.351C50.3354 59.0498 52.7666 54.2997 54.6875 49.1032C56.7358 43.8665 57.754 38.0184 57.754 31.568C57.754 21.95 55.378 14.4895 50.5283 9.28995C45.7772 3.96314 38.7445 1.35 29.552 1.35C20.3554 1.35 13.2695 3.96524 8.40798 9.28971L8.40752 9.29022C3.66976 14.4902 1.35 21.9503 1.35 31.568V42.992V43.642H2H19.472H20.122V42.992V30.392C20.122 26.1835 20.96 23.4393 22.4516 21.9476C24.1033 20.2959 26.2805 19.45 29.048 19.45C31.8038 19.45 33.9107 20.3431 35.4486 22.0861Z" fill="white" stroke="#9BA2B7" stroke-width="1.3"/>
</svg>
