<svg width="59" height="124" viewBox="0 0 59 124" fill="none" xmlns="http://www.w3.org/2000/svg">
<path d="M35.4486 22.0861L35.462 22.1013L35.4764 22.1156C36.2612 22.9004 36.8909 24.1087 37.322 25.806C37.7523 27.5002 37.974 29.6402 37.974 32.24V38.792C37.974 43.4407 36.9712 46.4475 35.1682 48.0502L35.1613 48.0563L35.1545 48.0627C33.4063 49.7081 30.8981 50.574 27.536 50.574H20.312H19.662V51.224V68.024V68.674H20.312H26.528C30.6811 68.674 33.5396 69.766 35.2727 71.805C37.0207 73.8614 37.974 77.5249 37.974 82.976V92.216C37.974 94.8158 37.7523 96.9558 37.322 98.65C36.8909 100.347 36.2612 101.556 35.4764 102.34L35.469 102.348L35.4618 102.355C33.9274 103.992 31.8165 104.838 29.048 104.838C26.2772 104.838 24.0999 104.045 22.4521 102.508C20.9521 100.896 20.122 98.0851 20.122 93.896V82.976V82.326H19.472H2H1.35V82.976V92.72C1.35 102.339 3.6702 109.851 8.40277 115.16L8.40773 115.166L8.41281 115.172C13.2753 120.381 20.3596 122.938 29.552 122.938C38.7431 122.938 45.7758 120.382 50.528 115.166C55.3759 109.857 57.754 102.342 57.754 92.72V83.48C57.754 77.3674 56.7364 72.171 54.669 67.9169C52.8735 63.9093 49.8802 60.8675 45.7274 58.7905C49.5281 56.9173 52.4392 54.1023 54.4432 50.3545C56.6649 46.1997 57.754 40.9331 57.754 34.592V31.568C57.754 21.95 55.378 14.4895 50.5283 9.28995C45.7772 3.96314 38.7445 1.35 29.552 1.35C20.3554 1.35 13.2695 3.96524 8.40798 9.28971L8.40752 9.29022C3.66976 14.4902 1.35 21.9503 1.35 31.568V37.952V38.602H2H19.472H20.122V37.952V30.392C20.122 26.1835 20.96 23.4393 22.4516 21.9476C24.1033 20.2959 26.2805 19.45 29.048 19.45C31.8038 19.45 33.9107 20.3431 35.4486 22.0861Z" fill="white" stroke="#9BA2B7" stroke-width="1.3"/>
</svg>
