<svg width="99" height="94" viewBox="0 0 99 94" fill="none" xmlns="http://www.w3.org/2000/svg">
<path d="M1.40094 62.8918L1.35 63.0128V63.1441V75.8559V76.5059H2H27.9328V92V92.65H28.5828H42.5072H43.1572V92V76.5059H49.0896H49.7396V75.8559V63.1441V62.4941H49.0896H43.1572V3.01694V2.36694H42.5072H27.317H26.8854L26.7179 2.7647L1.40094 62.8918ZM80.562 17.3019L80.5754 17.3172L80.5897 17.3315C81.154 17.8982 81.6184 18.7829 81.9392 20.0513C82.2591 21.3165 82.4257 22.9219 82.4257 24.8814C82.4257 29.137 81.7608 32.8193 80.4509 35.9436C79.1224 39.1119 77.4213 42.0282 75.3473 44.6941L75.3472 44.694L75.3395 44.7043C73.3315 47.3929 71.1562 49.9557 68.8133 52.3929C66.43 54.7866 64.1756 57.3926 62.05 60.2102L62.0481 60.2127C59.9881 62.971 58.2737 66.0281 56.9038 69.3813C55.5157 72.779 54.8301 76.6788 54.8301 81.0678V92V92.65H55.4801H95.7342H96.3842V92V79.2881V78.6381H95.7342H69.9704C69.7026 76.3452 70.0871 74.1636 71.1256 72.0778C72.2797 69.7599 73.8516 67.4309 75.8484 65.0915L75.8484 65.0915L75.8556 65.0829C77.8688 62.6399 80.1359 60.1101 82.6576 57.4934L82.6577 57.4935L82.6647 57.4859C85.2201 54.7486 87.6036 51.7564 89.8155 48.5101C92.0404 45.2445 93.8778 41.6392 95.3293 37.6965C96.8803 33.7137 97.65 29.2695 97.65 24.3729C97.65 17.0722 95.8542 11.3837 92.1647 7.41051C88.5459 3.33684 83.1971 1.35 76.2401 1.35C69.279 1.35 63.8909 3.3389 60.1892 7.41018L60.1887 7.41069C56.5836 11.3843 54.8301 17.0725 54.8301 24.3729V33.0169V33.6669H55.4801H68.645H69.295V33.0169V23.483C69.295 20.3097 69.926 18.2872 71.0043 17.2044C72.2145 15.9892 73.8115 15.3619 75.8603 15.3619C77.8974 15.3619 79.438 16.0227 80.562 17.3019ZM15.7623 62.4941L27.9328 33.453V62.4941H15.7623Z" fill="white" stroke="#9BA2B7" stroke-width="1.3"/>
</svg>
