<svg width="211" height="76" viewBox="0 0 211 76" fill="none" xmlns="http://www.w3.org/2000/svg">
<mask id="path-1-outside-1_57_170" maskUnits="userSpaceOnUse" x="0" y="0.200195" width="211" height="75" fill="black">
<rect fill="white" y="0.200195" width="211" height="75"/>
<path d="M12.4 50.4002V56.9002C12.4 59.4335 12.9 61.2002 13.9 62.2002C14.9667 63.2002 16.3667 63.7002 18.1 63.7002C19.8333 63.7002 21.2 63.2002 22.2 62.2002C23.2667 61.2002 23.8 59.4335 23.8 56.9002V41.5002C23.8 38.9669 23.2667 37.2002 22.2 36.2002C21.2 35.1335 19.8333 34.6002 18.1 34.6002C16.3667 34.6002 14.9667 35.1335 13.9 36.2002C12.9 37.2002 12.4 38.9669 12.4 41.5002V43.6002H2L4 3.00019H33V13.0002H13.9L13 29.7002C15.0667 26.3002 18.2667 24.6002 22.6 24.6002C26.6667 24.6002 29.7 25.9669 31.7 28.7002C33.7667 31.4335 34.8 35.4002 34.8 40.6002V56.2002C34.8 61.8669 33.4 66.2335 30.6 69.3002C27.8667 72.3002 23.8 73.8002 18.4 73.8002C13 73.8002 8.9 72.3002 6.1 69.3002C3.36667 66.2335 2 61.8669 2 56.2002V50.4002H12.4ZM52.2484 56.9002C52.2484 59.4335 52.7484 61.2335 53.7484 62.3002C54.8151 63.3002 56.2151 63.8002 57.9484 63.8002C59.6818 63.8002 61.0484 63.3002 62.0484 62.3002C63.1151 61.2335 63.6484 59.4335 63.6484 56.9002V19.1002C63.6484 16.5669 63.1151 14.8002 62.0484 13.8002C61.0484 12.7335 59.6818 12.2002 57.9484 12.2002C56.2151 12.2002 54.8151 12.7335 53.7484 13.8002C52.7484 14.8002 52.2484 16.5669 52.2484 19.1002V56.9002ZM41.2484 19.8002C41.2484 14.1335 42.6818 9.80019 45.5484 6.80019C48.4151 3.73353 52.5484 2.2002 57.9484 2.2002C63.3484 2.2002 67.4818 3.73353 70.3484 6.80019C73.2151 9.80019 74.6484 14.1335 74.6484 19.8002V56.2002C74.6484 61.8669 73.2151 66.2335 70.3484 69.3002C67.4818 72.3002 63.3484 73.8002 57.9484 73.8002C52.5484 73.8002 48.4151 72.3002 45.5484 69.3002C42.6818 66.2335 41.2484 61.8669 41.2484 56.2002V19.8002ZM107.424 56.9002C107.424 59.4335 107.924 61.2335 108.924 62.3002C109.991 63.3002 111.391 63.8002 113.124 63.8002C114.858 63.8002 116.224 63.3002 117.224 62.3002C118.291 61.2335 118.824 59.4335 118.824 56.9002V19.1002C118.824 16.5669 118.291 14.8002 117.224 13.8002C116.224 12.7335 114.858 12.2002 113.124 12.2002C111.391 12.2002 109.991 12.7335 108.924 13.8002C107.924 14.8002 107.424 16.5669 107.424 19.1002V56.9002ZM96.4242 19.8002C96.4242 14.1335 97.8576 9.80019 100.724 6.80019C103.591 3.73353 107.724 2.2002 113.124 2.2002C118.524 2.2002 122.658 3.73353 125.524 6.80019C128.391 9.80019 129.824 14.1335 129.824 19.8002V56.2002C129.824 61.8669 128.391 66.2335 125.524 69.3002C122.658 72.3002 118.524 73.8002 113.124 73.8002C107.724 73.8002 103.591 72.3002 100.724 69.3002C97.8576 66.2335 96.4242 61.8669 96.4242 56.2002V19.8002ZM147.073 56.9002C147.073 59.4335 147.573 61.2335 148.573 62.3002C149.639 63.3002 151.039 63.8002 152.773 63.8002C154.506 63.8002 155.873 63.3002 156.873 62.3002C157.939 61.2335 158.473 59.4335 158.473 56.9002V19.1002C158.473 16.5669 157.939 14.8002 156.873 13.8002C155.873 12.7335 154.506 12.2002 152.773 12.2002C151.039 12.2002 149.639 12.7335 148.573 13.8002C147.573 14.8002 147.073 16.5669 147.073 19.1002V56.9002ZM136.073 19.8002C136.073 14.1335 137.506 9.80019 140.373 6.80019C143.239 3.73353 147.373 2.2002 152.773 2.2002C158.173 2.2002 162.306 3.73353 165.173 6.80019C168.039 9.80019 169.473 14.1335 169.473 19.8002V56.2002C169.473 61.8669 168.039 66.2335 165.173 69.3002C162.306 72.3002 158.173 73.8002 152.773 73.8002C147.373 73.8002 143.239 72.3002 140.373 69.3002C137.506 66.2335 136.073 61.8669 136.073 56.2002V19.8002ZM186.721 56.9002C186.721 59.4335 187.221 61.2335 188.221 62.3002C189.288 63.3002 190.688 63.8002 192.421 63.8002C194.154 63.8002 195.521 63.3002 196.521 62.3002C197.588 61.2335 198.121 59.4335 198.121 56.9002V19.1002C198.121 16.5669 197.588 14.8002 196.521 13.8002C195.521 12.7335 194.154 12.2002 192.421 12.2002C190.688 12.2002 189.288 12.7335 188.221 13.8002C187.221 14.8002 186.721 16.5669 186.721 19.1002V56.9002ZM175.721 19.8002C175.721 14.1335 177.154 9.80019 180.021 6.80019C182.888 3.73353 187.021 2.2002 192.421 2.2002C197.821 2.2002 201.954 3.73353 204.821 6.80019C207.688 9.80019 209.121 14.1335 209.121 19.8002V56.2002C209.121 61.8669 207.688 66.2335 204.821 69.3002C201.954 72.3002 197.821 73.8002 192.421 73.8002C187.021 73.8002 182.888 72.3002 180.021 69.3002C177.154 66.2335 175.721 61.8669 175.721 56.2002V19.8002Z"/>
</mask>
<path d="M12.4 50.4002V56.9002C12.4 59.4335 12.9 61.2002 13.9 62.2002C14.9667 63.2002 16.3667 63.7002 18.1 63.7002C19.8333 63.7002 21.2 63.2002 22.2 62.2002C23.2667 61.2002 23.8 59.4335 23.8 56.9002V41.5002C23.8 38.9669 23.2667 37.2002 22.2 36.2002C21.2 35.1335 19.8333 34.6002 18.1 34.6002C16.3667 34.6002 14.9667 35.1335 13.9 36.2002C12.9 37.2002 12.4 38.9669 12.4 41.5002V43.6002H2L4 3.00019H33V13.0002H13.9L13 29.7002C15.0667 26.3002 18.2667 24.6002 22.6 24.6002C26.6667 24.6002 29.7 25.9669 31.7 28.7002C33.7667 31.4335 34.8 35.4002 34.8 40.6002V56.2002C34.8 61.8669 33.4 66.2335 30.6 69.3002C27.8667 72.3002 23.8 73.8002 18.4 73.8002C13 73.8002 8.9 72.3002 6.1 69.3002C3.36667 66.2335 2 61.8669 2 56.2002V50.4002H12.4ZM52.2484 56.9002C52.2484 59.4335 52.7484 61.2335 53.7484 62.3002C54.8151 63.3002 56.2151 63.8002 57.9484 63.8002C59.6818 63.8002 61.0484 63.3002 62.0484 62.3002C63.1151 61.2335 63.6484 59.4335 63.6484 56.9002V19.1002C63.6484 16.5669 63.1151 14.8002 62.0484 13.8002C61.0484 12.7335 59.6818 12.2002 57.9484 12.2002C56.2151 12.2002 54.8151 12.7335 53.7484 13.8002C52.7484 14.8002 52.2484 16.5669 52.2484 19.1002V56.9002ZM41.2484 19.8002C41.2484 14.1335 42.6818 9.80019 45.5484 6.80019C48.4151 3.73353 52.5484 2.2002 57.9484 2.2002C63.3484 2.2002 67.4818 3.73353 70.3484 6.80019C73.2151 9.80019 74.6484 14.1335 74.6484 19.8002V56.2002C74.6484 61.8669 73.2151 66.2335 70.3484 69.3002C67.4818 72.3002 63.3484 73.8002 57.9484 73.8002C52.5484 73.8002 48.4151 72.3002 45.5484 69.3002C42.6818 66.2335 41.2484 61.8669 41.2484 56.2002V19.8002ZM107.424 56.9002C107.424 59.4335 107.924 61.2335 108.924 62.3002C109.991 63.3002 111.391 63.8002 113.124 63.8002C114.858 63.8002 116.224 63.3002 117.224 62.3002C118.291 61.2335 118.824 59.4335 118.824 56.9002V19.1002C118.824 16.5669 118.291 14.8002 117.224 13.8002C116.224 12.7335 114.858 12.2002 113.124 12.2002C111.391 12.2002 109.991 12.7335 108.924 13.8002C107.924 14.8002 107.424 16.5669 107.424 19.1002V56.9002ZM96.4242 19.8002C96.4242 14.1335 97.8576 9.80019 100.724 6.80019C103.591 3.73353 107.724 2.2002 113.124 2.2002C118.524 2.2002 122.658 3.73353 125.524 6.80019C128.391 9.80019 129.824 14.1335 129.824 19.8002V56.2002C129.824 61.8669 128.391 66.2335 125.524 69.3002C122.658 72.3002 118.524 73.8002 113.124 73.8002C107.724 73.8002 103.591 72.3002 100.724 69.3002C97.8576 66.2335 96.4242 61.8669 96.4242 56.2002V19.8002ZM147.073 56.9002C147.073 59.4335 147.573 61.2335 148.573 62.3002C149.639 63.3002 151.039 63.8002 152.773 63.8002C154.506 63.8002 155.873 63.3002 156.873 62.3002C157.939 61.2335 158.473 59.4335 158.473 56.9002V19.1002C158.473 16.5669 157.939 14.8002 156.873 13.8002C155.873 12.7335 154.506 12.2002 152.773 12.2002C151.039 12.2002 149.639 12.7335 148.573 13.8002C147.573 14.8002 147.073 16.5669 147.073 19.1002V56.9002ZM136.073 19.8002C136.073 14.1335 137.506 9.80019 140.373 6.80019C143.239 3.73353 147.373 2.2002 152.773 2.2002C158.173 2.2002 162.306 3.73353 165.173 6.80019C168.039 9.80019 169.473 14.1335 169.473 19.8002V56.2002C169.473 61.8669 168.039 66.2335 165.173 69.3002C162.306 72.3002 158.173 73.8002 152.773 73.8002C147.373 73.8002 143.239 72.3002 140.373 69.3002C137.506 66.2335 136.073 61.8669 136.073 56.2002V19.8002ZM186.721 56.9002C186.721 59.4335 187.221 61.2335 188.221 62.3002C189.288 63.3002 190.688 63.8002 192.421 63.8002C194.154 63.8002 195.521 63.3002 196.521 62.3002C197.588 61.2335 198.121 59.4335 198.121 56.9002V19.1002C198.121 16.5669 197.588 14.8002 196.521 13.8002C195.521 12.7335 194.154 12.2002 192.421 12.2002C190.688 12.2002 189.288 12.7335 188.221 13.8002C187.221 14.8002 186.721 16.5669 186.721 19.1002V56.9002ZM175.721 19.8002C175.721 14.1335 177.154 9.80019 180.021 6.80019C182.888 3.73353 187.021 2.2002 192.421 2.2002C197.821 2.2002 201.954 3.73353 204.821 6.80019C207.688 9.80019 209.121 14.1335 209.121 19.8002V56.2002C209.121 61.8669 207.688 66.2335 204.821 69.3002C201.954 72.3002 197.821 73.8002 192.421 73.8002C187.021 73.8002 182.888 72.3002 180.021 69.3002C177.154 66.2335 175.721 61.8669 175.721 56.2002V19.8002Z" stroke="#242C43" stroke-width="2.6" mask="url(#path-1-outside-1_57_170)"/>
</svg>
