<svg width="54" height="54" viewBox="0 0 54 54" fill="none" xmlns="http://www.w3.org/2000/svg">
<path d="M47.25 26.9998V15.1172C47.25 10.1899 47.25 7.72626 45.6586 6.37822C44.0674 5.03017 41.6351 5.43556 36.7704 6.24634L34.398 6.64174C30.7073 7.25684 28.8621 7.56437 27 7.56437C25.1379 7.56437 23.2927 7.25684 19.602 6.64174L17.2296 6.24634C12.3649 5.43556 9.93263 5.03017 8.34131 6.37822C6.75 7.72626 6.75 10.1899 6.75 15.1172V26.9998C6.75 39.3529 16.2877 45.3478 22.2718 47.8933C23.895 48.5838 24.7066 48.9292 27 48.9292C29.2934 48.9292 30.105 48.5838 31.7282 47.8933C37.7123 45.3478 47.25 39.3529 47.25 26.9998Z" stroke="#C6C4CC" stroke-width="2"/>
<path d="M14 17.7647C14 16.4469 14 15.788 14.4167 15.2847C14.7833 14.842 15.3682 14.482 16.0877 14.2565C16.9056 14 17.9763 14 20.1176 14H33.8824C36.0237 14 37.0944 14 37.9124 14.2565C38.6318 14.482 39.2166 14.842 39.5832 15.2847C40 15.788 40 16.4469 40 17.7647V26.2353C40 27.553 40 28.212 39.5832 28.7153C39.2166 29.158 38.6318 29.5179 37.9124 29.7435C37.0944 30 36.0237 30 33.8824 30H20.1176C17.9763 30 16.9056 30 16.0877 29.7435C15.3682 29.5179 14.7833 29.158 14.4167 28.7153C14 28.212 14 27.553 14 26.2353V17.7647Z" stroke="#E16119" stroke-width="2"/>
<path d="M19 35V39.5" stroke="#E16119" stroke-width="2" stroke-linecap="round"/>
<path d="M27 35V39.5" stroke="#E16119" stroke-width="2" stroke-linecap="round"/>
<path d="M35 35V39.5" stroke="#E16119" stroke-width="2" stroke-linecap="round"/>
</svg>
