<svg width="54" height="54" viewBox="0 0 54 54" fill="none" xmlns="http://www.w3.org/2000/svg">
<path d="M23.625 30.375H16.875M23.625 30.375V37.125M23.625 30.375L15.75 38.25" stroke="#E16119" stroke-width="2" stroke-linecap="round" stroke-linejoin="round"/>
<path d="M30.375 23.625H37.125M30.375 23.625V16.875M30.375 23.625L38.25 15.75" stroke="#E16119" stroke-width="2" stroke-linecap="round" stroke-linejoin="round"/>
<path d="M2.2085 13.8752C2.2085 9.79145 2.2085 7.74958 3.00323 6.1898C3.70233 4.8178 4.8178 3.70233 6.1898 3.00323C7.74958 2.2085 9.79145 2.2085 13.8752 2.2085H40.1252C44.2088 2.2085 46.2507 2.2085 47.8106 3.00323C49.1826 3.70233 50.2979 4.8178 50.997 6.1898C51.7918 7.74958 51.7918 9.79145 51.7918 13.8752V40.1252C51.7918 44.2088 51.7918 46.2507 50.997 47.8106C50.2979 49.1826 49.1826 50.2979 47.8106 50.997C46.2507 51.7918 44.2088 51.7918 40.1252 51.7918H13.8752C9.79145 51.7918 7.74958 51.7918 6.1898 50.997C4.8178 50.2979 3.70233 49.1826 3.00323 47.8106C2.2085 46.2507 2.2085 44.2088 2.2085 40.1252V13.8752Z" stroke="#C6C4CC" stroke-width="2"/>
</svg>
