<svg width="205" height="63" viewBox="0 0 205 63" fill="none" xmlns="http://www.w3.org/2000/svg">
<path d="M2 9.26061H1.35V9.91061V16.338V16.988H2H8.30699V60.3408V60.9908H8.95699H17.9601H18.6101V60.3408V2.65921V2.00921H17.9601H11.9035H11.434L11.2864 2.45491C10.9681 3.41644 10.5976 4.32185 10.1755 5.17178C9.77335 5.98144 9.24744 6.68693 8.59634 7.29202C7.96932 7.87474 7.12858 8.35535 6.04924 8.71757L6.04921 8.7175L6.04002 8.72075C5.04396 9.07173 3.70607 9.26061 2 9.26061ZM68.2714 38.8338V38.1838H67.6214H59.1093H58.4593V38.8338V47.074C58.4593 49.1064 58.0279 50.3322 57.3536 50.9686L57.346 50.9758L57.3386 50.9833C56.6682 51.6582 55.7304 52.0274 54.444 52.0274C53.1637 52.0274 52.1905 51.6611 51.4604 50.976C50.8332 50.3382 50.4288 49.1071 50.4288 47.074V15.926C50.4288 13.8851 50.8363 12.6524 51.4676 12.0167C52.2007 11.2787 53.1712 10.8902 54.444 10.8902C55.7179 10.8902 56.6509 11.2787 57.3241 12.0016L57.3384 12.017L57.3536 12.0314C58.0279 12.6678 58.4593 13.8936 58.4593 15.926V22.1061V22.7561H59.1093H67.6214H68.2714V22.1061V16.5028C68.2714 11.7363 67.102 7.98569 64.6655 5.35403C62.2697 2.65148 58.7401 1.35 54.1985 1.35C49.6528 1.35 46.0987 2.65356 43.6498 5.35384L43.6494 5.35435C41.2674 7.98643 40.1256 11.7367 40.1256 16.5028V46.4972C40.1256 51.2645 41.2679 55.038 43.6446 57.7228L43.6496 57.7283L43.6546 57.7338C46.1045 60.3765 49.6571 61.65 54.1985 61.65C58.739 61.65 62.2687 60.3768 64.6658 57.728C67.1001 55.0434 68.2714 51.2677 68.2714 46.4972V38.8338ZM75.8534 51.4546L75.1311 51.3738V52.1006V60.3408V60.904L75.6886 60.9842C76.4779 61.0977 77.2185 61.1556 77.9092 61.1556H77.913H77.9168H77.9207H77.9245H77.9284H77.9322H77.9361H77.9399H77.9438H77.9476H77.9515H77.9553H77.9592H77.9631H77.9669H77.9708H77.9747H77.9785H77.9824H77.9863H77.9901H77.994H77.9979H78.0018H78.0057H78.0096H78.0134H78.0173H78.0212H78.0251H78.029H78.0329H78.0368H78.0407H78.0446H78.0485H78.0524H78.0563H78.0602H78.0641H78.068H78.072H78.0759H78.0798H78.0837H78.0876H78.0916H78.0955H78.0994H78.1033H78.1073H78.1112H78.1151H78.1191H78.123H78.127H78.1309H78.1348H78.1388H78.1427H78.1467H78.1506H78.1546H78.1585H78.1625H78.1665H78.1704H78.1744H78.1783H78.1823H78.1863H78.1903H78.1942H78.1982H78.2022H78.2062H78.2101H78.2141H78.2181H78.2221H78.2261H78.2301H78.2341H78.238H78.242H78.246H78.25H78.254H78.258H78.262H78.2661H78.2701H78.2741H78.2781H78.2821H78.2861H78.2901H78.2941H78.2982H78.3022H78.3062H78.3102H78.3143H78.3183H78.3223H78.3264H78.3304H78.3344H78.3385H78.3425H78.3466H78.3506H78.3547H78.3587H78.3628H78.3668H78.3709H78.3749H78.379H78.383H78.3871H78.3912H78.3952H78.3993H78.4034H78.4074H78.4115H78.4156H78.4197H78.4238H78.4278H78.4319H78.436H78.4401H78.4442H78.4483H78.4524H78.4565H78.4605H78.4646H78.4687H78.4728H78.477H78.4811H78.4852H78.4893H78.4934H78.4975H78.5016H78.5057H78.5098H78.514H78.5181H78.5222H78.5263H78.5305H78.5346H78.5387H78.5429H78.547H78.5511H78.5553H78.5594H78.5636H78.5677H78.5718H78.576H78.5801H78.5843H78.5885H78.5926H78.5968H78.6009H78.6051H78.6093H78.6134H78.6176H78.6217H78.6259H78.6301H78.6343H78.6385H78.6426H78.6468H78.651H78.6552H78.6594H78.6635H78.6677H78.6719H78.6761H78.6803H78.6845H78.6887H78.6929H78.6971H78.7013H78.7055H78.7097H78.7139H78.7182H78.7224H78.7266H78.7308H78.735H78.7393H78.7435H78.7477H78.7519H78.7561H78.7604H78.7646H78.7689H78.7731H78.7773H78.7816H78.7858H78.7901H78.7943H78.7985H78.8028H78.807H78.8113H78.8156H78.8198H78.8241H78.8283H78.8326H78.8369H78.8411H78.8454H78.8497H78.8539H78.8582H78.8625H78.8668H78.871H78.8753H78.8796H78.8839H78.8882H78.8925H78.8968H78.9011H78.9053H78.9096H78.9139H78.9182H78.9225H78.9268H78.9312H78.9355H78.9398H78.9441H78.9484H78.9527H78.957H78.9613H78.9657H78.97H78.9743H78.9786H78.983H78.9873H78.9916H78.996H79.0003H79.0046H79.009H79.0133H79.0177H79.022H79.0264H79.0307H79.0351H79.0394H79.0438H79.0481H79.0525H79.0568H79.0612H79.0656H79.0699H79.0743H79.0787H79.083H79.0874H79.0918H79.0962H79.1005H79.1049H79.1093H79.1137H79.1181H79.1225H79.1269H79.1312H79.1356H79.14H79.1444H79.1488H79.1532H79.1576H79.162H79.1665H79.1709H79.1753H79.1797H79.1841H79.1885H79.1929H79.1973H79.2018H79.2062H79.2106H79.215H79.2195H79.2239H79.2283H79.2328H79.2372H79.2417H79.2461H79.2505H79.255H79.2594H79.2639H79.2683H79.2728H79.2772H79.2817H79.2861H79.2906H79.2951H79.2995H79.304H79.3085H79.3129H79.3174H79.3219H79.3263H79.3308H79.3353H79.3398H79.3443H79.3487H79.3532H79.3577H79.3622H79.3667H79.3712H79.3757H79.3802H79.3847H79.3892H79.3937H79.3982H79.4027H79.4072H79.4117H79.4162H79.4207H79.4253H79.4298H79.4343H79.4388H79.4433H79.4479H79.4524H79.4569H79.4615H79.466H79.4705H79.4751H79.4796H79.4841H79.4887H79.4932H79.4978H79.5023H79.5069H79.5114H79.516H79.5205H79.5251H79.5296H79.5342H79.5388H79.5433H79.5479H79.5525H79.557H79.5616H79.5662H79.5708H79.5753H79.5799H79.5845H79.5891H79.5937H79.5982H79.6028H79.6074H79.612H79.6166H79.6212H79.6258H79.6304H79.635H79.6396H79.6442H79.6488H79.6534H79.658H79.6627H79.6673H79.6719H79.6765H79.6811H79.6858H79.6904H79.695H79.6996H79.7043H79.7089H79.7135H79.7182H79.7228H79.7274H79.7321H79.7367H79.7414H79.746H79.7507H79.7553H79.76H79.7646H79.7693H79.7739H79.7786H79.7833H79.7879H79.7926H79.7972H79.8019H79.8066H79.8113H79.8159H79.8206H79.8253H79.83H79.8347H79.8393H79.844H79.8487H79.8534H79.8581H79.8628H79.8675H79.8722H79.8769H79.8816H79.8863H79.891H79.8957H79.9004H79.9051H79.9098H79.9145H79.9193H79.924H79.9287H79.9334H79.9381H79.9429H79.9476H79.9523H79.9571H79.9618H79.9665H79.9713H79.976H79.9807H79.9855H79.9902H79.995H79.9997H80.0045H80.0092H80.014H80.0187H80.0235H80.0282H80.033H80.0378H80.0425H80.0473H80.0521H80.0568H80.0616H80.0664H80.0712H80.0759H80.0807H80.0855H80.0903H80.0951H80.0999H80.1046H80.1094H80.1142H80.119C81.8239 61.1556 83.3693 61.1002 84.7542 60.9887C86.2985 60.8688 87.7222 60.3287 89.0151 59.382L89.0228 59.3764L89.0302 59.3706C90.3372 58.3538 91.5087 56.7488 92.5675 54.6175C93.6886 52.4156 94.7657 49.3178 95.8065 45.3479C95.8069 45.3465 95.8072 45.345 95.8076 45.3436L107.591 2.83284L107.819 2.00921H106.965H97.9617H97.4503L97.3299 2.50617L89.7173 33.9298L80.4972 2.47637L80.3603 2.00921H79.8735H70.8703H69.9949L70.2481 2.84721L83.3156 46.0979C83.3088 47.2759 83.1767 48.2135 82.9395 48.9298L82.9333 48.9485L82.9283 48.9677C82.7331 49.7046 82.4314 50.2118 82.0591 50.545L82.0449 50.5577L82.0314 50.5713C81.6856 50.9194 81.2478 51.1668 80.697 51.3054L80.697 51.3053L80.6835 51.309C80.1466 51.4564 79.5505 51.533 78.8913 51.533H78.8885H78.8856H78.8827H78.8798H78.8769H78.8741H78.8712H78.8683H78.8654H78.8625H78.8596H78.8568H78.8539H78.851H78.8481H78.8452H78.8423H78.8394H78.8365H78.8337H78.8308H78.8279H78.825H78.8221H78.8192H78.8163H78.8134H78.8105H78.8076H78.8047H78.8018H78.7989H78.796H78.7931H78.7902H78.7873H78.7844H78.7815H78.7786H78.7757H78.7728H78.7699H78.767H78.7641H78.7612H78.7583H78.7554H78.7525H78.7496H78.7467H78.7438H78.7409H78.7379H78.735H78.7321H78.7292H78.7263H78.7234H78.7205H78.7176H78.7146H78.7117H78.7088H78.7059H78.703H78.7001H78.6971H78.6942H78.6913H78.6884H78.6855H78.6825H78.6796H78.6767H78.6738H78.6708H78.6679H78.665H78.6621H78.6591H78.6562H78.6533H78.6504H78.6474H78.6445H78.6416H78.6386H78.6357H78.6328H78.6298H78.6269H78.624H78.621H78.6181H78.6152H78.6122H78.6093H78.6063H78.6034H78.6005H78.5975H78.5946H78.5916H78.5887H78.5858H78.5828H78.5799H78.5769H78.574H78.571H78.5681H78.5651H78.5622H78.5592H78.5563H78.5533H78.5504H78.5474H78.5445H78.5415H78.5386H78.5356H78.5327H78.5297H78.5268H78.5238H78.5209H78.5179H78.5149H78.512H78.509H78.5061H78.5031H78.5001H78.4972H78.4942H78.4913H78.4883H78.4853H78.4824H78.4794H78.4764H78.4735H78.4705H78.4675H78.4646H78.4616H78.4586H78.4557H78.4527H78.4497H78.4467H78.4438H78.4408H78.4378H78.4349H78.4319H78.4289H78.4259H78.4229H78.42H78.417H78.414H78.411H78.4081H78.4051H78.4021H78.3991H78.3961H78.3931H78.3902H78.3872H78.3842H78.3812H78.3782H78.3752H78.3722H78.3693H78.3663H78.3633H78.3603H78.3573H78.3543H78.3513H78.3483H78.3453H78.3423H78.3393H78.3363H78.3333H78.3303H78.3273H78.3244H78.3214H78.3184H78.3154H78.3124H78.3094H78.3064H78.3034H78.3003H78.2973H78.2943H78.2913H78.2883H78.2853H78.2823H78.2793H78.2763H78.2733H78.2703H78.2673H78.2643H78.2613H78.2582H78.2552H78.2522H78.2492H78.2462H78.2432H78.2402H78.2372H78.2341H78.2311H78.2281H78.2251H78.2221H78.219H78.216H78.213H78.21H78.207H78.2039H78.2009H78.1979H78.1949H78.1918H78.1888H78.1858H78.1828H78.1797H78.1767H78.1737H78.1706H78.1676H78.1646H78.1616H78.1585H78.1555H78.1525H78.1494H78.1464H78.1433H78.1403H78.1373H78.1342H78.1312H78.1282H78.1251H78.1221H78.119H78.116H78.113H78.1099H78.1069H78.1038H78.1008H78.0977H78.0947H78.0917H78.0886H78.0856H78.0825H78.0795H78.0764H78.0734H78.0703H78.0673H78.0642H78.0612H78.0581H78.0551H78.052H78.049H78.0459H78.0428H78.0398H78.0367H78.0337H78.0306H78.0276H78.0245H78.0214H78.0184H78.0153H78.0123H78.0092H78.0061H78.0031H78H77.9969H77.9939H77.9908H77.9877H77.9847H77.9816H77.9785H77.9755H77.9724H77.9693H77.9662H77.9632H77.9601H77.957H77.954H77.9509H77.9478H77.9447H77.9417H77.9386H77.9355H77.9324H77.9293H77.9263H77.9232H77.9201H77.917H77.9139H77.9109H77.9078H77.9047H77.9016H77.8985H77.8954H77.8923H77.8893H77.8862H77.8831H77.88H77.8769H77.8738H77.8707H77.8676H77.8645H77.8615H77.8584H77.8553H77.8522H77.8491H77.846H77.8429H77.8398H77.8367H77.8336H77.8305H77.8274H77.8243H77.8212H77.8181H77.815H77.8119H77.8088H77.8057H77.8026H77.7995H77.7964H77.7933H77.7902H77.787H77.7839H77.7808H77.7777H77.7746H77.7715H77.7684H77.7653H77.7622H77.759H77.7559H77.7528H77.7497H77.7466H77.7435H77.7404H77.7372H77.7341H77.731H77.7279H77.7248H77.7216H77.7185H77.7154H77.7123H77.7092H77.706H77.7029H77.6998H77.6967H77.6935H77.6904H77.6873H77.6841H77.681H77.6779H77.6748H77.6716H77.6685H77.6654H77.6622H77.6591H77.656H77.6528H77.6497H77.6466H77.6434H77.6403H77.6371H77.634H77.6309H77.6277H77.6246H77.6215H77.6183H77.6152H77.612H77.6089H77.6057H77.6026H77.5994H77.5963H77.5932H77.59H77.5869H77.5837H77.5806H77.5774H77.5743H77.5711H77.568H77.5648H77.5617H77.5585H77.5554H77.5522H77.549H77.5459H77.5427H77.5396H77.5364H77.5333H77.5301H77.5269H77.5238H77.5206H77.5175H77.5143H77.5111H77.508H77.5048H77.5016H77.4985H77.4953H77.4921H77.489H77.4858H77.4826H77.4795H77.4763H77.4731H77.47H77.4668H77.4636H77.4604H77.4573H77.4541H77.4509H77.4478H77.4446H77.4414H77.4382H77.435H77.4319H77.4287H77.4255H77.4223H77.4192H77.416H77.4128H77.4096H77.4064H77.4032H77.4001H77.3969H77.3937H77.3905H77.3873H77.3841H77.3809H77.3777H77.3746H77.3714H77.3682H77.365H77.3618H77.3586H77.3554H77.3522H77.349H77.3458H77.3426H77.3394H77.3362C76.8123 51.533 76.3182 51.5066 75.8534 51.4546ZM108.597 2.00921H107.947V2.65921V10.8994V11.5494H108.597H117.359V60.3408V60.9908H118.009H127.012H127.662V60.3408V11.5494H136.425H137.075V10.8994V2.65921V2.00921H136.425H108.597ZM170.943 60.1037L158.525 28.3971L170.922 2.94385L171.378 2.00921H170.338H161.499H161.088L160.911 2.38011L150.199 24.9111V2.65921V2.00921H149.549H140.546H139.896V2.65921V60.3408V60.9908H140.546H149.549H150.199V60.3408V42.7853L152.236 38.925L160.482 60.5722L160.641 60.9908H161.089H170.338H171.291L170.943 60.1037ZM183.684 60.9908H184.183L184.312 60.5093L194.247 23.4921V60.3408V60.9908H194.897H203H203.65V60.3408V2.65921V2.00921H203H191.705H191.206L191.077 2.49103L183.106 32.2472V2.65921V2.00921H182.456H174.435H173.785V2.65921V60.3408V60.9908H174.435H183.684Z" fill="white" stroke="#9BA2B7" stroke-width="1.3"/>
</svg>
