<svg width="226" height="40" viewBox="0 0 226 40" fill="none" xmlns="http://www.w3.org/2000/svg">
<path d="M6.11209 30.516C6.11209 31.9293 6.38991 32.9335 6.94555 33.5286C7.53824 34.0865 8.31614 34.3654 9.27926 34.3654C10.2424 34.3654 11.0018 34.0865 11.5574 33.5286C12.1501 32.9335 12.4464 31.9293 12.4464 30.516V9.42817C12.4464 8.01488 12.1501 7.02929 11.5574 6.47141C11.0018 5.87634 10.2424 5.5788 9.27926 5.5788C8.31614 5.5788 7.53824 5.87634 6.94555 6.47141C6.38991 7.02929 6.11209 8.01488 6.11209 9.42817V30.516ZM0 9.81869C0 6.65737 0.796423 4.23989 2.38927 2.56625C3.98212 0.855415 6.27878 0 9.27926 0C12.2797 0 14.5764 0.855415 16.1692 2.56625C17.7621 4.23989 18.5585 6.65737 18.5585 9.81869V30.1255C18.5585 33.2868 17.7621 35.7229 16.1692 37.4338C14.5764 39.1074 12.2797 39.9442 9.27926 39.9442C6.27878 39.9442 3.98212 39.1074 2.38927 37.4338C0.796423 35.7229 0 33.2868 0 30.1255V9.81869Z" fill="white"/>
<path d="M31.5319 0.446302C34.6065 0.446302 36.8846 1.26453 38.3664 2.90098C39.8851 4.53742 40.6445 6.93631 40.6445 10.0976V15.1743C40.6445 18.3357 39.8851 20.7345 38.3664 22.371C36.8846 24.0074 34.6065 24.8257 31.5319 24.8257H28.6426V39.4979H22.5305V0.446302H31.5319ZM28.6426 6.0251V19.2469H31.5319C32.4951 19.2469 33.2359 18.9865 33.7545 18.4658C34.2731 17.9451 34.5324 16.9781 34.5324 15.5649V9.70711C34.5324 8.29381 34.2731 7.32682 33.7545 6.80614C33.2359 6.28545 32.4951 6.0251 31.5319 6.0251H28.6426Z" fill="white"/>
<path d="M63.2566 39.4979H57.089L56.0332 32.4128H48.532L47.4763 39.4979H41.8643L48.0875 0.446302H57.0334L63.2566 39.4979ZM49.3099 27.113H55.1998L52.2549 7.36402L49.3099 27.113Z" fill="white"/>
<path d="M66.103 0.446302H72.2151V33.9191H82.2722V39.4979H66.103V0.446302Z" fill="white"/>
<path d="M90.8747 0.446302V30.5718C90.8747 31.9851 91.1525 32.9707 91.7082 33.5286C92.3009 34.0865 93.0788 34.3654 94.0419 34.3654C95.005 34.3654 95.7644 34.0865 96.32 33.5286C96.9127 32.9707 97.2091 31.9851 97.2091 30.5718V0.446302H102.988V30.1813C102.988 33.3426 102.21 35.7787 100.654 37.4895C99.1353 39.1632 96.8757 40 93.8752 40C90.8747 40 88.5966 39.1632 87.0408 37.4895C85.522 35.7787 84.7626 33.3426 84.7626 30.1813V0.446302H90.8747Z" fill="white"/>
<path d="M116.403 0.446302C119.589 0.446302 121.885 1.19014 123.293 2.67782C124.738 4.1655 125.46 6.41562 125.46 9.42817V10.8229C125.46 12.8312 125.145 14.4863 124.516 15.788C123.886 17.0897 122.886 18.0567 121.515 18.689C123.182 19.3212 124.349 20.3626 125.016 21.8131C125.719 23.2264 126.071 24.9744 126.071 27.0572V30.2371C126.071 33.2497 125.293 35.5556 123.738 37.1548C122.182 38.7169 119.867 39.4979 116.792 39.4979H107.179V0.446302H116.403ZM113.291 21.9247V33.9191H116.792C117.829 33.9191 118.607 33.6402 119.126 33.0823C119.681 32.5244 119.959 31.5202 119.959 30.0697V26.6667C119.959 24.8443 119.644 23.5983 119.015 22.9289C118.422 22.2594 117.422 21.9247 116.014 21.9247H113.291ZM113.291 6.0251V16.3459H115.681C116.829 16.3459 117.718 16.0483 118.348 15.4533C119.015 14.8582 119.348 13.7796 119.348 12.2176V10.0418C119.348 8.62854 119.089 7.60576 118.57 6.9735C118.089 6.34124 117.311 6.0251 116.236 6.0251H113.291Z" fill="white"/>
<path d="M137.754 23.9331L135.865 27.5035V39.4979H129.752V0.446302H135.865V17.4616L143.977 0.446302H149.978L141.477 17.8522L149.978 39.4979H143.699L137.754 23.9331Z" fill="white"/>
<path d="M172.541 39.4979H166.373L165.317 32.4128H157.816L156.76 39.4979H151.148L157.371 0.446302H166.317L172.541 39.4979ZM158.594 27.113H164.484L161.539 7.36402L158.594 27.113Z" fill="white"/>
<path d="M181.277 33.5844V39.4979H175.387V33.5844H181.277Z" fill="white"/>
<path d="M198.477 39.4979C198.402 39.2376 198.328 38.9958 198.254 38.7727C198.18 38.5495 198.106 38.2706 198.032 37.9358C197.995 37.6011 197.958 37.1734 197.921 36.6527C197.921 36.132 197.921 35.4812 197.921 34.7001V28.5635C197.921 26.7411 197.606 25.4579 196.976 24.7141C196.347 23.9702 195.328 23.5983 193.92 23.5983H191.809V39.4979H185.697V0.446302H194.92C198.106 0.446302 200.403 1.19014 201.81 2.67782C203.255 4.1655 203.977 6.41562 203.977 9.42817V12.4965C203.977 16.5132 202.644 19.1539 199.977 20.4184C201.533 21.0507 202.588 22.0921 203.144 23.5425C203.737 24.9558 204.033 26.6853 204.033 28.7308V34.7559C204.033 35.7229 204.07 36.5783 204.144 37.3222C204.218 38.0288 204.403 38.7541 204.7 39.4979H198.477ZM191.809 6.0251V18.0195H194.198C195.346 18.0195 196.235 17.722 196.865 17.1269C197.532 16.5318 197.865 15.4533 197.865 13.8912V10.0418C197.865 8.62854 197.606 7.60576 197.087 6.9735C196.606 6.34124 195.828 6.0251 194.754 6.0251H191.809Z" fill="white"/>
<path d="M213.887 0.446302V30.5718C213.887 31.9851 214.165 32.9707 214.72 33.5286C215.313 34.0865 216.091 34.3654 217.054 34.3654C218.017 34.3654 218.777 34.0865 219.332 33.5286C219.925 32.9707 220.221 31.9851 220.221 30.5718V0.446302H226V30.1813C226 33.3426 225.222 35.7787 223.666 37.4895C222.148 39.1632 219.888 40 216.887 40C213.887 40 211.609 39.1632 210.053 37.4895C208.534 35.7787 207.775 33.3426 207.775 30.1813V0.446302H213.887Z" fill="white"/>
</svg>
