<svg width="54" height="54" viewBox="0 0 54 54" fill="none" xmlns="http://www.w3.org/2000/svg">
<path d="M43 39.5H38.5M38.5 39.5H34M38.5 39.5V35M38.5 39.5V44" stroke="#E16119" stroke-width="2" stroke-linecap="round"/>
<path d="M2 16L52 16" stroke="#E16119" stroke-width="2" stroke-linecap="round"/>
<path d="M2 16.0588C2 12.1879 2 10.2524 2.80141 8.77388C3.50638 7.47336 4.63123 6.416 6.01476 5.75333C7.58765 5 9.64668 5 13.7647 5H40.2353C44.3532 5 46.4124 5 47.9853 5.75333C49.3688 6.416 50.4935 7.47336 51.1985 8.77388C52 10.2524 52 12.1879 52 16.0588V40.9412C52 44.812 52 46.7476 51.1985 48.2262C50.4935 49.5267 49.3688 50.5839 47.9853 51.2466C46.4124 52 44.3532 52 40.2353 52H13.7647C9.64668 52 7.58765 52 6.01476 51.2466C4.63123 50.5839 3.50638 49.5267 2.80141 48.2262C2 46.7476 2 44.812 2 40.9412V16.0588Z" stroke="#C6C4CC" stroke-width="2"/>
<path d="M39 7L39 2" stroke="#E16119" stroke-width="2" stroke-linecap="round"/>
<path d="M15 7L15 2" stroke="#E16119" stroke-width="2" stroke-linecap="round"/>
</svg>
