<svg width="54" height="54" viewBox="0 0 54 54" fill="none" xmlns="http://www.w3.org/2000/svg">
<path d="M2 13.7647C2 9.64668 2 7.58765 2.80141 6.01476C3.50638 4.63123 4.63123 3.50638 6.01476 2.80141C7.58765 2 9.64668 2 13.7647 2H40.2353C44.3532 2 46.4124 2 47.9853 2.80141C49.3688 3.50638 50.4935 4.63123 51.1985 6.01476C52 7.58765 52 9.64668 52 13.7647V40.2353C52 44.3532 52 46.4124 51.1985 47.9853C50.4935 49.3688 49.3688 50.4935 47.9853 51.1985C46.4124 52 44.3532 52 40.2353 52H13.7647C9.64668 52 7.58765 52 6.01476 51.1985C4.63123 50.4935 3.50638 49.3688 2.80141 47.9853C2 46.4124 2 44.3532 2 40.2353V13.7647Z" stroke="#C6C4CC" stroke-width="2"/>
<path d="M27 20V29L32.625 34.625" stroke="#E16119" stroke-width="2" stroke-linecap="round" stroke-linejoin="round"/>
</svg>
