<svg width="54" height="54" viewBox="0 0 54 54" fill="none" xmlns="http://www.w3.org/2000/svg">
<path d="M25.875 18C28.9816 18 31.5 15.4816 31.5 12.375C31.5 9.2684 28.9816 6.75 25.875 6.75C22.7684 6.75 20.25 9.2684 20.25 12.375C20.25 15.4816 22.7684 18 25.875 18Z" stroke="#E16119" stroke-width="2"/>
<path d="M20.25 37.125C20.25 37.125 19.2924 40.7682 18 42.75C16.6424 44.8317 13.5 47.25 13.5 47.25" stroke="#C6C4CC" stroke-width="2" stroke-linecap="round"/>
<path d="M42.75 47.25V15.75" stroke="#E16119" stroke-width="2" stroke-linecap="round"/>
<path d="M42.9999 21C41.1881 23.2647 36.1757 26.6784 29.5984 24.0297C28.203 23.4678 26.6274 23.0867 25.3293 23.8469C23.1384 25.13 21.4927 27.7432 24.5017 32.1741C25.1108 33.0711 26.0668 33.6582 26.9531 34.2828C29.3683 35.9849 32.5 40.1359 32.5 48" stroke="#E16119" stroke-width="2"/>
</svg>
