<svg width="55" height="54" viewBox="0 0 55 54" fill="none" xmlns="http://www.w3.org/2000/svg">
<path d="M28 3.6665V9.49984" stroke="#E16119" stroke-width="2" stroke-linecap="round"/>
<path d="M28 26.999L10.6709 9.69385" stroke="#2A4157" stroke-opacity="0.24" stroke-width="2" stroke-linecap="round"/>
<path d="M51.3333 27H45.5" stroke="#E16119" stroke-width="2" stroke-linecap="round"/>
<path d="M28 44.5V50.3333" stroke="#E16119" stroke-width="2" stroke-linecap="round"/>
<path d="M10.4998 27H4.6665" stroke="#E16119" stroke-width="2" stroke-linecap="round"/>
<path d="M28 2.5C33.6683 2.5 39.161 4.46537 43.5427 8.06124C47.9244 11.6571 50.9236 16.661 52.0293 22.2202C53.135 27.7796 52.279 33.5502 49.607 38.5491C46.935 43.548 42.6125 47.466 37.3757 49.6351C32.1391 51.8042 26.3122 52.0903 20.8881 50.445C15.4639 48.7997 10.7781 45.3245 7.62902 40.6115C4.47995 35.8985 3.06242 30.2395 3.61802 24.5987C4.17358 18.9577 6.66789 13.6839 10.6759 9.67587" stroke="#2A4157" stroke-opacity="0.24" stroke-width="2" stroke-linecap="round"/>
</svg>
