<svg width="54" height="54" viewBox="0 0 54 54" fill="none" xmlns="http://www.w3.org/2000/svg">
<path d="M2.2085 13.8752C2.2085 9.79145 2.2085 7.74958 3.00323 6.1898C3.70233 4.8178 4.8178 3.70233 6.1898 3.00323C7.74958 2.2085 9.79145 2.2085 13.8752 2.2085H40.1252C44.2088 2.2085 46.2507 2.2085 47.8106 3.00323C49.1826 3.70233 50.2979 4.8178 50.997 6.1898C51.7918 7.74958 51.7918 9.79145 51.7918 13.8752V40.1252C51.7918 44.2088 51.7918 46.2507 50.997 47.8106C50.2979 49.1826 49.1826 50.2979 47.8106 50.997C46.2507 51.7918 44.2088 51.7918 40.1252 51.7918H13.8752C9.79145 51.7918 7.74958 51.7918 6.1898 50.997C4.8178 50.2979 3.70233 49.1826 3.00323 47.8106C2.2085 46.2507 2.2085 44.2088 2.2085 40.1252V13.8752Z" stroke="#2A4157" stroke-opacity="0.24" stroke-width="2"/>
<path d="M16.7918 31.3752C20.0135 31.3752 22.6252 28.7635 22.6252 25.5418C22.6252 22.3202 20.0135 19.7085 16.7918 19.7085C13.5702 19.7085 10.9585 22.3202 10.9585 25.5418C10.9585 28.7635 13.5702 31.3752 16.7918 31.3752Z" stroke="#E16119" stroke-width="2"/>
<path d="M22.625 25.5415H37.2083M37.2083 25.5415H42.6042C42.8457 25.5415 43.0417 25.7375 43.0417 25.979V31.3748M37.2083 25.5415V31.3748" stroke="#E16119" stroke-width="2" stroke-linecap="round"/>
</svg>
