<svg width="48" height="51" viewBox="0 0 48 51" fill="none" xmlns="http://www.w3.org/2000/svg">
<path d="M2 17.6471C2 14.2703 2 12.5819 2.70524 11.2921C3.32562 10.1576 4.31549 9.23523 5.53299 8.65716C6.91713 8 8.72908 8 12.3529 8H35.6471C39.2708 8 41.0829 8 42.4671 8.65716C43.6846 9.23523 44.6743 10.1576 45.2947 11.2921C46 12.5819 46 14.2703 46 17.6471V39.3529C46 42.7297 46 44.4181 45.2947 45.7079C44.6743 46.8424 43.6846 47.7647 42.4671 48.3428C41.0829 49 39.2708 49 35.6471 49H12.3529C8.72908 49 6.91713 49 5.53299 48.3428C4.31549 47.7647 3.32562 46.8424 2.70524 45.7079C2 44.4181 2 42.7297 2 39.3529V17.6471Z" stroke="#CCD2D7" stroke-width="2"/>
<path d="M24 41.5833V27" stroke="#E16119" stroke-width="2" stroke-linecap="round"/>
<path d="M31.2918 34.2915H16.7085" stroke="#E16119" stroke-width="2" stroke-linecap="round"/>
<line x1="2" y1="19" x2="46" y2="19" stroke="#CCD2D7" stroke-width="2"/>
<path d="M14 14L14 2" stroke="#CCD2D7" stroke-width="2" stroke-linecap="round"/>
<path d="M34 14L34 2" stroke="#CCD2D7" stroke-width="2" stroke-linecap="round"/>
</svg>
