<svg width="54" height="54" viewBox="0 0 54 54" fill="none" xmlns="http://www.w3.org/2000/svg">
<path d="M6 14.8235C6 11.0349 6 9.14063 6.67319 7.69358C7.26536 6.42074 8.21024 5.38587 9.3724 4.7373C10.6936 4 12.4232 4 15.8824 4H38.1176C41.5767 4 43.3064 4 44.6276 4.7373C45.7898 5.38587 46.7346 6.42074 47.3268 7.69358C48 9.14063 48 11.0349 48 14.8235V39.1765C48 42.965 48 44.8594 47.3268 46.3065C46.7346 47.5793 45.7898 48.614 44.6276 49.2626C43.3064 50 41.5767 50 38.1176 50H15.8824C12.4232 50 10.6936 50 9.3724 49.2626C8.21024 48.614 7.26536 47.5793 6.67319 46.3065C6 44.8594 6 42.965 6 39.1765V14.8235Z" stroke="#C6C4CC" stroke-width="2"/>
<path d="M40.905 18.0885L41.9479 17.0457C43.6755 15.3181 46.4767 15.3181 48.2043 17.0457C49.932 18.7734 49.932 21.5745 48.2043 23.3021L47.1616 24.345M40.905 18.0885C40.905 18.0885 41.0355 20.3043 42.9906 22.2594C44.9458 24.2145 47.1616 24.345 47.1616 24.345M40.905 18.0885L31.3187 27.6748C30.6693 28.3241 30.3447 28.6488 30.0654 29.0068C29.7363 29.4291 29.4539 29.8861 29.2235 30.3694C29.0282 30.7793 28.8828 31.2147 28.5926 32.0859L27.6629 34.875L27.3621 35.7772M47.1616 24.345L37.5753 33.9313C36.9259 34.5807 36.6012 34.9054 36.2433 35.1846C35.8209 35.5138 35.364 35.7961 34.8807 36.0265C34.4707 36.2218 34.0353 36.3672 33.1641 36.6574L30.375 37.5871L29.4728 37.888M27.3621 35.7772L27.0612 36.6797C26.9184 37.1083 27.03 37.5811 27.3495 37.9006C27.669 38.2201 28.1417 38.3317 28.5703 38.1888L29.4728 37.888M27.3621 35.7772L29.4728 37.888" stroke="#E16119" stroke-width="2"/>
<path d="M18 29.25H23.625" stroke="#E16119" stroke-width="2" stroke-linecap="round"/>
<path d="M18 20.25H32.625" stroke="#E16119" stroke-width="2" stroke-linecap="round"/>
<path d="M18 38.25H21.375" stroke="#E16119" stroke-width="2" stroke-linecap="round"/>
</svg>
