<svg width="54" height="54" viewBox="0 0 54 54" fill="none" xmlns="http://www.w3.org/2000/svg">
<path d="M13.5 35.55L16.0714 38.25L22.5 31.5" stroke="#E16119" stroke-width="2" stroke-linecap="round" stroke-linejoin="round"/>
<path d="M13.5 19.8L16.0714 22.5L22.5 15.75" stroke="#E16119" stroke-width="2" stroke-linecap="round" stroke-linejoin="round"/>
<path d="M29.25 20.25H40.5" stroke="#E16119" stroke-width="2" stroke-linecap="round"/>
<path d="M29.25 36H40.5" stroke="#E16119" stroke-width="2" stroke-linecap="round"/>
<path d="M6 14.8235C6 11.0349 6 9.14063 6.67319 7.69358C7.26536 6.42074 8.21024 5.38587 9.3724 4.7373C10.6936 4 12.4232 4 15.8824 4H38.1176C41.5767 4 43.3064 4 44.6276 4.7373C45.7898 5.38587 46.7346 6.42074 47.3268 7.69358C48 9.14063 48 11.0349 48 14.8235V39.1765C48 42.965 48 44.8594 47.3268 46.3065C46.7346 47.5793 45.7898 48.614 44.6276 49.2626C43.3064 50 41.5767 50 38.1176 50H15.8824C12.4232 50 10.6936 50 9.3724 49.2626C8.21024 48.614 7.26536 47.5793 6.67319 46.3065C6 44.8594 6 42.965 6 39.1765V14.8235Z" stroke="#C6C4CC" stroke-width="2"/>
</svg>
