<svg width="54" height="54" viewBox="0 0 54 54" fill="none" xmlns="http://www.w3.org/2000/svg">
<path d="M22.5 37.125H13.5" stroke="#E16119" stroke-width="2" stroke-linecap="round"/>
<path d="M18 30.375H13.5" stroke="#E16119" stroke-width="2" stroke-linecap="round"/>
<path d="M5 23L49 23" stroke="#E16119" stroke-width="2" stroke-linecap="round"/>
<path d="M31.5 33.75C31.5 31.6287 31.5 30.5681 32.159 29.909C32.8181 29.25 33.8787 29.25 36 29.25C38.1213 29.25 39.1819 29.25 39.841 29.909C40.5 30.5681 40.5 31.6287 40.5 33.75C40.5 35.8713 40.5 36.9319 39.841 37.591C39.1819 38.25 38.1213 38.25 36 38.25C33.8787 38.25 32.8181 38.25 32.159 37.591C31.5 36.9319 31.5 35.8713 31.5 33.75Z" stroke="#E16119" stroke-width="2"/>
<path d="M5 17.4706C5 14.5056 5 13.0231 5.70524 11.8906C6.32562 10.8945 7.31549 10.0846 8.53299 9.57702C9.91713 9 11.7291 9 15.3529 9H38.6471C42.2708 9 44.0829 9 45.4671 9.57702C46.6846 10.0846 47.6743 10.8945 48.2947 11.8906C49 13.0231 49 14.5056 49 17.4706V36.5294C49 39.4943 49 40.9769 48.2947 42.1094C47.6743 43.1056 46.6846 43.9153 45.4671 44.4229C44.0829 45 42.2708 45 38.6471 45H15.3529C11.7291 45 9.91713 45 8.53299 44.4229C7.31549 43.9153 6.32562 43.1056 5.70524 42.1094C5 40.9769 5 39.4943 5 36.5294V17.4706Z" stroke="#C6C4CC" stroke-width="2"/>
</svg>
