<svg width="54" height="54" viewBox="0 0 54 54" fill="none" xmlns="http://www.w3.org/2000/svg">
<path d="M42.75 11.25L44.8844 11.9615C47.1121 12.704 48.2258 13.0753 48.8628 13.9592C49.5 14.8431 49.5 16.0171 49.4998 18.3653V18.5285C49.4998 20.4651 49.4998 21.4335 49.0336 22.2257C48.5674 23.0179 47.7209 23.4882 46.028 24.4287L39.375 28.125" stroke="#C6C4CC" stroke-width="2"/>
<path d="M11.2499 11.25L9.11547 11.9615C6.88784 12.704 5.77402 13.0753 5.13698 13.9592C4.49991 14.8431 4.49993 16.0171 4.5 18.3653V18.5285C4.50007 20.4651 4.50009 21.4335 4.96627 22.2257C5.43242 23.0179 6.27892 23.4882 7.97186 24.4287L14.6249 28.125" stroke="#C6C4CC" stroke-width="2"/>
<path d="M27 38.25V42.75" stroke="#C6C4CC" stroke-width="2" stroke-linecap="round"/>
<path d="M40.5 49.5H13.5" stroke="#C6C4CC" stroke-width="2" stroke-linecap="round"/>
<path d="M27.0006 36C14.0406 36 11.7447 23.0839 11.338 12.8396C11.2249 9.98996 11.1683 8.56514 12.2387 7.24687C13.309 5.92861 14.5901 5.71246 17.1523 5.28017C19.6814 4.85345 22.9875 4.5 27.0006 4.5C31.0134 4.5 34.3196 4.85345 36.8486 5.28017C39.4109 5.71246 40.6918 5.92861 41.7621 7.24687C42.8327 8.56514 42.776 9.98996 42.6628 12.8396C42.2562 23.0839 39.9603 36 27.0006 36Z" stroke="#E16119" stroke-width="2"/>
<path d="M34.875 49.5H19.125L19.8882 45.6838C20.0986 44.6321 21.022 43.875 22.0946 43.875H31.9054C32.978 43.875 33.9014 44.6321 34.1118 45.6838L34.875 49.5Z" stroke="#E16119" stroke-width="2" stroke-linecap="round" stroke-linejoin="round"/>
</svg>
