<svg width="15" height="13" viewBox="0 0 15 13" fill="none" xmlns="http://www.w3.org/2000/svg">
<path fill-rule="evenodd" clip-rule="evenodd" d="M12.0044 11.1075C11.9861 11.3065 11.9086 11.4955 11.7818 11.65C11.6551 11.8045 11.485 11.9176 11.2934 11.9745C11.1019 12.0314 10.8977 12.0297 10.7071 11.9694C10.5166 11.9091 10.3484 11.7932 10.2243 11.6364C9.13434 10.7694 7.43443 9.52146 7.43443 9.52146C7.43443 9.52146 6.20435 11.6885 5.98435 11.9105C5.91173 11.9717 5.82722 12.017 5.73606 12.0436C5.6449 12.0702 5.54907 12.0775 5.45493 12.065C5.3608 12.0525 5.27035 12.0204 5.18931 11.9709C5.10827 11.9214 5.03845 11.8555 4.98435 11.7774C4.97313 11.7433 4.95985 11.7099 4.94444 11.6775L5.63438 8.22544L10.5544 3.39246L3.84434 7.22144C3.84434 7.22144 0.814358 6.31546 0.364358 6.13846C0.248273 6.07505 0.152544 5.98003 0.0882347 5.86444C0.0239248 5.74886 -0.00624915 5.61743 0.00107646 5.48536C0.00840206 5.35329 0.0529178 5.226 0.129616 5.11823C0.206315 5.01046 0.312041 4.92662 0.434426 4.87644C1.07443 4.55044 12.3644 0.238445 12.7444 0.127445C13.1244 0.0164454 14.1244 -0.272557 14.0144 0.700443C13.9044 1.67344 12.1144 10.5735 12.0044 11.1075Z" fill="white"/>
</svg>
